<?xml version="1.0" encoding="UTF-8"?>
<svg width="23px" height="20px" viewBox="0 0 23 20" version="1.1" xmlns="http://www.w3.org/2000/svg" xmlns:xlink="http://www.w3.org/1999/xlink">
    <!-- Generator: Sketch 60 (88103) - https://sketch.com -->
    <title>Icon-accounting</title>
    <desc>Created with Sketch.</desc>
    <defs>
        <path d="M22.9967143,9.85715373 L0,9.85715373 L0.00328571429,18.8961428 C0.00328571429,18.9202468 0.00427043343,18.9440506 0.00620072391,18.9675205 C0.0415026429,19.3967465 0.393065525,19.7142856 0.821428571,19.7142856 L22.1818571,19.7142856 C22.6385714,19.7142856 23,19.3479285 23,18.8961428 L22.9967143,9.85715373 Z M8.21428571,3.28572516 L14.7857143,3.28572516 L14.7857143,1.64286801 L8.21428571,1.64286801 L8.21428571,3.28572516 Z M22.195,3.28572516 C22.6402143,3.28572516 23.0016429,3.6405823 23.0016429,4.09893944 L23.0016429,8.21429659 L0.00164285714,8.21429659 L0.00657142857,4.09893944 C0.00657142857,3.65043944 0.359785714,3.28572516 0.8395,3.28572516 L6.57142857,3.28572516 L6.57142857,0.739296586 C6.57142857,0.739296586 6.6815,-0.0016319853 7.24007143,0.00165372899 C10.1117857,0.0115108718 12.9835,0.013153729 15.8568571,1.08718429e-05 C16.4154286,-0.00327484244 16.4285714,0.739296586 16.4285714,0.739296586 L16.4285714,3.28572516 L22.195,3.28572516 Z" id="path-1"></path>
    </defs>
    <g id="Design-Sprint" stroke="none" stroke-width="1" fill="none" fill-rule="evenodd">
        <g id="T1---LG---HP11" transform="translate(-858.000000, -2939.000000)">
            <g id="use-casse-CAT" transform="translate(129.000000, 2809.000000)">
                <g id="Icon/14/briefcase" transform="translate(729.000000, 130.000000)">
                    <mask id="mask-2" fill="white">
                        <use xlink:href="#path-1"></use>
                    </mask>
                    <use id="Mask" fill="#A0A0A0" fill-rule="evenodd" xlink:href="#path-1"></use>
                    <g id="Color/Midnight-Blue" mask="url(#mask-2)" fill="#1D4354" fill-rule="evenodd">
                        <rect id="color" x="0" y="0" width="23" height="23"></rect>
                    </g>
                </g>
            </g>
        </g>
    </g>
</svg>