<svg 
xmlns="http://www.w3.org/2000/svg"
 x="0px"
  y="0px"
width="18"
 height="18"
viewBox="0 0 224 224"
style=" margin-right:15px;">
<g transform=""><g fill="none" fill-rule="nonzero" stroke="none" stroke-width="1" stroke-linecap="butt" stroke-linejoin="miter" stroke-miterlimit="10" stroke-dasharray="" stroke-dashoffset="0" font-family="none" font-weight="none" font-size="none" text-anchor="none" style="mix-blend-mode: normal"><path d="M0,224v-224h224v224z" fill="none"></path><g fill="#2ecc71"><path d="M149.33333,51.72708c-0.9632,0 -1.93247,0.18048 -2.85833,0.56875c-2.79253,1.14987 -4.60834,3.88138 -4.60834,6.89792v30.39167h-112c-8.25067,0 -14.93333,6.68267 -14.93333,14.93333v14.93333c0,8.25067 6.68267,14.93333 14.93333,14.93333h112v30.40625c0,3.01653 1.8158,5.74806 4.60834,6.89792c2.79253,1.1648 5.99456,0.51672 8.13749,-1.61875l52.79167,-52.80625c2.91947,-2.91947 2.91947,-7.62428 0,-10.54375l-52.79167,-52.80625c-1.42613,-1.42613 -3.33783,-2.1875 -5.27916,-2.1875z"></path></g><path d="M0,224v-224h224v224z" fill="none"></path><path d="M4.48,219.52v-215.04h215.04v215.04z" fill="none"></path><path d="M1.12,222.88v-221.76h221.76v221.76z" fill="none"></path><path d="M5.6,218.4v-212.8h212.8v212.8z" fill="none"></path><path d="M6.72,217.28v-210.56h210.56v210.56z" fill="none"></path><path d="M11.2,212.8v-201.6h201.6v201.6z" fill="none"></path><path d="M7.84,216.16v-208.32h208.32v208.32z" fill="none"></path><path d="M12.32,211.68v-199.36h199.36v199.36z" fill="none"></path><path d="M8.96,215.04v-206.08h206.08v206.08z" fill="none"></path><path d="M13.44,210.56v-197.12h197.12v197.12z" fill="none"></path><path d="M10.08,213.92v-203.84h203.84v203.84z" fill="none"></path><path d="M14.56,209.44v-194.88h194.88v194.88z" fill="none"></path><path d="M11.2,212.8v-201.6h201.6v201.6z" fill="none"></path><path d="M15.68,208.32v-192.64h192.64v192.64z" fill="none"></path><path d="M13.44,210.56v-197.12h197.12v197.12z" fill="none"></path><path d="M17.92,206.08v-188.16h188.16v188.16z" fill="none"></path><path d="M14.56,209.44v-194.88h194.88v194.88z" fill="none"></path><path d="M19.04,204.96v-185.92h185.92v185.92z" fill="none"></path><path d="M15.68,208.32v-192.64h192.64v192.64z" fill="none"></path><path d="M20.16,203.84v-183.68h183.68v183.68z" fill="none"></path><path d="M16.8,207.2v-190.4h190.4v190.4z" fill="none"></path><path d="M21.28,202.72v-181.44h181.44v181.44z" fill="none"></path><path d="M15.68,208.32v-192.64h192.64v192.64z" fill="none"></path><path d="M20.16,203.84v-183.68h183.68v183.68z" fill="none"></path><path d="M6.72,217.28v-210.56h210.56v210.56z" fill="none"></path><path d="M11.2,212.8v-201.6h201.6v201.6z" fill="none"></path><path d="M3.36,220.64v-217.28h217.28v217.28z" fill="none"></path><path d="M7.84,216.16v-208.32h208.32v208.32z" fill="none"></path><path d="M0,224v-224h224v224z" fill="none"></path><path d="M4.48,219.52v-215.04h215.04v215.04z" fill="none"></path><path d="M112,224c-61.85589,0 -112,-50.14411 -112,-112v0c0,-61.85589 50.14411,-112 112,-112v0c61.85589,0 112,50.14411 112,112v0c0,61.85589 -50.14411,112 -112,112z" fill="none"></path><path d="M112,206.08c-51.95895,0 -94.08,-42.12105 -94.08,-94.08v0c0,-51.95895 42.12105,-94.08 94.08,-94.08h0c51.95895,0 94.08,42.12105 94.08,94.08v0c0,51.95895 -42.12105,94.08 -94.08,94.08z" fill="none"></path><path d="M112,224c-61.85589,0 -112,-50.14411 -112,-112v0c0,-61.85589 50.14411,-112 112,-112v0c61.85589,0 112,50.14411 112,112v0c0,61.85589 -50.14411,112 -112,112z" fill="none"></path><path d="M112,206.08c-51.95895,0 -94.08,-42.12105 -94.08,-94.08v0c0,-51.95895 42.12105,-94.08 94.08,-94.08h0c51.95895,0 94.08,42.12105 94.08,94.08v0c0,51.95895 -42.12105,94.08 -94.08,94.08z" fill="none"></path><path d="M112,224c-61.85589,0 -112,-50.14411 -112,-112v0c0,-61.85589 50.14411,-112 112,-112v0c61.85589,0 112,50.14411 112,112v0c0,61.85589 -50.14411,112 -112,112z" fill="none"></path><path d="M112,206.08c-51.95895,0 -94.08,-42.12105 -94.08,-94.08v0c0,-51.95895 42.12105,-94.08 94.08,-94.08h0c51.95895,0 94.08,42.12105 94.08,94.08v0c0,51.95895 -42.12105,94.08 -94.08,94.08z" fill="none"></path><path d="M112,224c-61.85589,0 -112,-50.14411 -112,-112v0c0,-61.85589 50.14411,-112 112,-112v0c61.85589,0 112,50.14411 112,112v0c0,61.85589 -50.14411,112 -112,112z" fill="none"></path><path d="M112,206.08c-51.95895,0 -94.08,-42.12105 -94.08,-94.08v0c0,-51.95895 42.12105,-94.08 94.08,-94.08h0c51.95895,0 94.08,42.12105 94.08,94.08v0c0,51.95895 -42.12105,94.08 -94.08,94.08z" fill="none"></path><path d="M112,224c-61.85589,0 -112,-50.14411 -112,-112v0c0,-61.85589 50.14411,-112 112,-112v0c61.85589,0 112,50.14411 112,112v0c0,61.85589 -50.14411,112 -112,112z" fill="none"></path><path d="M112,206.08c-51.95895,0 -94.08,-42.12105 -94.08,-94.08v0c0,-51.95895 42.12105,-94.08 94.08,-94.08h0c51.95895,0 94.08,42.12105 94.08,94.08v0c0,51.95895 -42.12105,94.08 -94.08,94.08z" fill="none"></path><path d="M112,224c-61.85589,0 -112,-50.14411 -112,-112v0c0,-61.85589 50.14411,-112 112,-112v0c61.85589,0 112,50.14411 112,112v0c0,61.85589 -50.14411,112 -112,112z" fill="none"></path><path d="M112,206.08c-51.95895,0 -94.08,-42.12105 -94.08,-94.08v0c0,-51.95895 42.12105,-94.08 94.08,-94.08h0c51.95895,0 94.08,42.12105 94.08,94.08v0c0,51.95895 -42.12105,94.08 -94.08,94.08z" fill="none"></path><path d="M112,224c-61.85589,0 -112,-50.14411 -112,-112v0c0,-61.85589 50.14411,-112 112,-112v0c61.85589,0 112,50.14411 112,112v0c0,61.85589 -50.14411,112 -112,112z" fill="none"></path><path d="M112,206.08c-51.95895,0 -94.08,-42.12105 -94.08,-94.08v0c0,-51.95895 42.12105,-94.08 94.08,-94.08h0c51.95895,0 94.08,42.12105 94.08,94.08v0c0,51.95895 -42.12105,94.08 -94.08,94.08z" fill="none"></path><path d="M112,224c-61.85589,0 -112,-50.14411 -112,-112v0c0,-61.85589 50.14411,-112 112,-112v0c61.85589,0 112,50.14411 112,112v0c0,61.85589 -50.14411,112 -112,112z" fill="none"></path><path d="M112,206.08c-51.95895,0 -94.08,-42.12105 -94.08,-94.08v0c0,-51.95895 42.12105,-94.08 94.08,-94.08h0c51.95895,0 94.08,42.12105 94.08,94.08v0c0,51.95895 -42.12105,94.08 -94.08,94.08z" fill="none"></path><path d="M112,224c-61.85589,0 -112,-50.14411 -112,-112v0c0,-61.85589 50.14411,-112 112,-112v0c61.85589,0 112,50.14411 112,112v0c0,61.85589 -50.14411,112 -112,112z" fill="none"></path><path d="M112,206.08c-51.95895,0 -94.08,-42.12105 -94.08,-94.08v0c0,-51.95895 42.12105,-94.08 94.08,-94.08h0c51.95895,0 94.08,42.12105 94.08,94.08v0c0,51.95895 -42.12105,94.08 -94.08,94.08z" fill="none"></path><path d="M112,224c-61.85589,0 -112,-50.14411 -112,-112v0c0,-61.85589 50.14411,-112 112,-112v0c61.85589,0 112,50.14411 112,112v0c0,61.85589 -50.14411,112 -112,112z" fill="none"></path><path d="M112,206.08c-51.95895,0 -94.08,-42.12105 -94.08,-94.08v0c0,-51.95895 42.12105,-94.08 94.08,-94.08h0c51.95895,0 94.08,42.12105 94.08,94.08v0c0,51.95895 -42.12105,94.08 -94.08,94.08z" fill="none"></path><path d="M112,224c-61.85589,0 -112,-50.14411 -112,-112v0c0,-61.85589 50.14411,-112 112,-112v0c61.85589,0 112,50.14411 112,112v0c0,61.85589 -50.14411,112 -112,112z" fill="none"></path><path d="M112,206.08c-51.95895,0 -94.08,-42.12105 -94.08,-94.08v0c0,-51.95895 42.12105,-94.08 94.08,-94.08h0c51.95895,0 94.08,42.12105 94.08,94.08v0c0,51.95895 -42.12105,94.08 -94.08,94.08z" fill="none"></path><path d="M112,224c-61.85589,0 -112,-50.14411 -112,-112v0c0,-61.85589 50.14411,-112 112,-112v0c61.85589,0 112,50.14411 112,112v0c0,61.85589 -50.14411,112 -112,112z" fill="none"></path><path d="M112,206.08c-51.95895,0 -94.08,-42.12105 -94.08,-94.08v0c0,-51.95895 42.12105,-94.08 94.08,-94.08h0c51.95895,0 94.08,42.12105 94.08,94.08v0c0,51.95895 -42.12105,94.08 -94.08,94.08z" fill="none"></path><path d="M112,224c-61.85589,0 -112,-50.14411 -112,-112v0c0,-61.85589 50.14411,-112 112,-112v0c61.85589,0 112,50.14411 112,112v0c0,61.85589 -50.14411,112 -112,112z" fill="none"></path><path d="M112,206.08c-51.95895,0 -94.08,-42.12105 -94.08,-94.08v0c0,-51.95895 42.12105,-94.08 94.08,-94.08h0c51.95895,0 94.08,42.12105 94.08,94.08v0c0,51.95895 -42.12105,94.08 -94.08,94.08z" fill="none"></path><path d="M112,224c-61.85589,0 -112,-50.14411 -112,-112v0c0,-61.85589 50.14411,-112 112,-112v0c61.85589,0 112,50.14411 112,112v0c0,61.85589 -50.14411,112 -112,112z" fill="none"></path><path d="M112,206.08c-51.95895,0 -94.08,-42.12105 -94.08,-94.08v0c0,-51.95895 42.12105,-94.08 94.08,-94.08h0c51.95895,0 94.08,42.12105 94.08,94.08v0c0,51.95895 -42.12105,94.08 -94.08,94.08z" fill="none">
</path></g></g></svg>