<?xml version="1.0" encoding="UTF-8"?>
<svg width="82px" height="80px" viewBox="0 0 82 80" version="1.1" xmlns="http://www.w3.org/2000/svg" xmlns:xlink="http://www.w3.org/1999/xlink">
    <!-- Generator: sketchtool 60 (101010) - https://sketch.com -->
    <title>01E995CE-10FC-4D36-9CE2-08E16FE97902</title>
    <desc>Created with sketchtool.</desc>
    <defs>
        <polygon id="path-1" points="0 0.762226804 2.90974819 0.762226804 2.90974819 3.86903093 0 3.86903093"></polygon>
        <polygon id="path-3" points="5.2051166 79.2356289 81.9391388 79.2356289 81.9391388 0.000164948454 5.2051166 0.000164948454"></polygon>
    </defs>
    <g id="Design-R5" stroke="none" stroke-width="1" fill="none" fill-rule="evenodd">
        <g id="Toggle-R5-(XL)-&gt;1200---Desktop" transform="translate(-1259.000000, -673.000000)">
            <g id="VPs" transform="translate(730.000000, 673.000000)">
                <g id="1-2-3">
                    <g id="Icon+Text" transform="translate(390.000000, 0.000000)">
                        <g id="illo-project-size" transform="translate(139.000000, 0.000000)">
                            <g id="Group-8" transform="translate(0.483868, 19.185511)" fill="#FFCC0D">
                                <path d="M6.53905169,4.3347134 L0.527921171,4.3347134 C0.236142725,4.3347134 -3.64153152e-14,4.08267216 -3.64153152e-14,3.77124948 C-3.64153152e-14,3.4598268 0.236142725,3.20778557 0.527921171,3.20778557 L6.53905169,3.20778557 C6.82959379,3.20778557 7.06697286,3.4598268 7.06697286,3.77124948 C7.06697286,4.08267216 6.82959379,4.3347134 6.53905169,4.3347134" id="Fill-1"></path>
                                <path d="M3.53385734,7.54276289 C3.24207889,7.54276289 3.00469982,7.29072165 3.00469982,6.97929897 L3.00469982,0.563463918 C3.00469982,0.252041237 3.24207889,-3.55271368e-14 3.53385734,-3.55271368e-14 C3.82439943,-3.55271368e-14 4.06177851,0.252041237 4.06177851,0.563463918 L4.06177851,6.97929897 C4.06177851,7.29072165 3.82439943,7.54276289 3.53385734,7.54276289" id="Fill-3"></path>
                            </g>
                            <g id="Group-7" transform="translate(5.205117, 37.173773)">
                                <mask id="mask-2" fill="white">
                                    <use xlink:href="#path-1"></use>
                                </mask>
                                <g id="Clip-6"></g>
                                <path d="M2.90974819,2.31521649 C2.90974819,3.17294845 2.25911934,3.86903093 1.45549227,3.86903093 C0.650319756,3.86903093 -0.000309087336,3.17294845 -0.000309087336,2.31521649 C-0.000309087336,1.45665979 0.650319756,0.762226804 1.45549227,0.762226804 C2.25911934,0.762226804 2.90974819,1.45665979 2.90974819,2.31521649" id="Fill-5" fill="#F3756C" mask="url(#mask-2)"></path>
                            </g>
                            <mask id="mask-4" fill="white">
                                <use xlink:href="#path-3"></use>
                            </mask>
                            <g id="Clip-9"></g>
                            <path d="M46.9997517,9.16156701 L46.9997517,19.4865155 C47.009797,20.2914639 47.62179,20.9413608 48.3782812,20.9413608 C48.7538223,20.9413608 49.0899548,20.7780619 49.3379974,20.5190928 L49.3379974,20.5256907 C50.3425312,19.5318763 51.8539683,19.113732 53.4194957,19.7974433 C54.2478497,20.1586804 54.9286146,20.8679588 55.273247,21.7496082 C56.4052793,24.6469278 54.441802,27.4230103 51.8717408,27.4230103 C50.891934,27.4230103 50.0040806,27.0164124 49.3379974,26.358268 L49.3379974,26.361567 C49.0899548,26.1025979 48.7538223,25.939299 48.3782812,25.939299 C47.62179,25.939299 47.009797,26.5891959 46.9997517,27.3941443 L46.9997517,37.2729072 L37.5385883,37.2729072 C36.8794596,37.1607423 36.3756472,36.5570309 36.3756472,35.8230103 C36.3756472,35.4221856 36.5278727,35.0634227 36.771279,34.7978557 L36.7681881,34.7978557 C37.3855901,34.0877526 37.7657675,33.1401237 37.7657675,32.0951753 C37.7657675,29.350433 35.1632521,27.2539381 32.4479199,28.4654845 C31.621884,28.8333196 30.9581189,29.5599175 30.6196683,30.444866 C29.9814029,32.1149691 30.3723984,33.7273402 31.3042967,34.7978557 L31.2973423,34.7978557 C31.5399758,35.0634227 31.6929741,35.4221856 31.6929741,35.8230103 C31.6929741,36.5570309 31.188389,37.1607423 30.5308057,37.2729072 L20.661647,37.2729072 L20.661647,27.2861031 L20.661647,19.5549691 L20.661647,9.97971134 C20.661647,9.52775258 21.004734,9.16156701 21.4281836,9.16156701 L46.9997517,9.16156701 Z" id="Fill-11" fill="#E0E0E0" mask="url(#mask-4)"></path>
                            <path d="M72.5666062,65.3825979 C72.9900558,65.3825979 73.3331428,65.0164124 73.3331428,64.5644536 L73.3331428,37.2720825 L63.9863417,37.2720825 C63.2715773,37.216 62.7059474,36.5858969 62.7059474,35.8089897 C62.7059474,35.4081649 62.8550821,35.0502268 63.0977156,34.7838351 C64.0319321,33.7100206 64.4237003,32.0918763 63.7761623,30.416 C63.4392571,29.5425979 62.783992,28.8250722 61.9687741,28.4580619 C59.2488056,27.2333196 56.6370176,29.3314639 56.6370176,32.0811546 C56.6370176,33.1261031 57.017195,34.0745567 57.6338242,34.7838351 L57.6276425,34.7838351 C57.870276,35.0502268 58.0232743,35.4081649 58.0232743,35.8089897 C58.0232743,36.5858969 57.4576445,37.216 56.7421073,37.2720825 L46.9950381,37.2720825 L46.9950381,47.804866 C47.1001278,48.5075464 47.6657576,49.0452784 48.353477,49.0452784 C48.7290181,49.0452784 49.0651505,48.8828041 49.3139659,48.6230103 L49.3139659,48.630433 C50.3208179,47.6333196 51.837664,47.216 53.4070549,47.9063093 C54.2253636,48.2658969 54.8968559,48.9652784 55.2407155,49.8353814 C56.388975,52.7384742 54.4231795,55.5269278 51.8469366,55.5269278 C50.8679024,55.5269278 49.9792763,55.1211546 49.3139659,54.4621856 L49.3139659,54.4654845 C49.0651505,54.2065155 48.7290181,54.0432165 48.353477,54.0432165 C47.6657576,54.0432165 47.1001278,54.5817732 46.9950381,55.2844536 L46.9950381,65.3825979 L46.9950381,65.3825979 L72.5666062,65.3825979 Z" id="Fill-12" fill="#E0E0E0" mask="url(#mask-4)"></path>
                            <path d="M78.9060647,19.5268454 C77.6558064,19.2843711 76.4975016,19.7115876 75.6768748,20.523134 L75.6768748,20.5165361 C75.4280595,20.7763299 75.091927,20.9388041 74.7171586,20.9388041 C73.9606673,20.9388041 73.3479017,20.2889072 73.3386291,19.4847835 L73.3386291,9.97797938 C73.3386291,9.52602062 72.9955421,9.15901031 72.5720925,9.15901031 L64.1749623,9.15901031 C63.5127426,9.05014433 63.0050667,8.44560825 63.0050667,7.70828866 C63.0050667,7.30828866 63.1572922,6.94952577 63.4006985,6.68395876 L63.3976076,6.68395876 C64.1548716,5.81220619 64.5551397,4.58251546 64.3341422,3.25468041 C64.0737362,1.6934433 62.9169768,0.409319588 61.4619482,0.0884948454 C59.0541578,-0.443463918 56.9353641,1.50457732 56.9353641,3.98045361 C56.9353641,5.02540206 57.3163143,5.97385567 57.9329435,6.68395876 L57.9267618,6.68395876 C58.1693953,6.94952577 58.3223935,7.30828866 58.3223935,7.70828866 C58.3223935,8.44560825 57.8139449,9.05014433 57.152498,9.15901031 L47.0005244,9.15901031 L47.0005244,19.5524124 C46.9487523,20.315299 46.3583955,20.9190103 45.6304948,20.9190103 C45.2549537,20.9190103 44.9188212,20.7565361 44.6700059,20.4967423 L44.6700059,20.500866 C43.8540153,19.6926186 42.7011196,19.2645773 41.457043,19.5004536 C39.9950599,19.7783918 38.7911648,21.0130309 38.4898046,22.5660206 C37.992174,25.1359175 39.8173347,27.3973608 42.1370352,27.3973608 C43.116842,27.3973608 44.0046954,26.9915876 44.6700059,26.3326186 L44.6700059,26.3392165 C44.9188212,26.0802474 45.2549537,25.9169485 45.6304948,25.9169485 C46.3583955,25.9169485 46.9487523,26.5206598 47.0005244,27.2835464 L47.0005244,37.2703505 L56.8689103,37.2703505 C57.5272664,37.1581856 58.0318515,36.5544742 58.0318515,35.8204536 C58.0318515,35.4204536 57.8788532,35.0616907 57.6362197,34.7961237 L57.6416287,34.7961237 C56.8812738,33.9202474 56.4810057,32.6823093 56.7081849,31.3470515 C56.9763182,29.780866 58.1493046,28.5016907 59.6120605,28.1924124 C62.0051692,27.6868454 64.0235095,29.6282887 64.0235095,32.0926186 C64.0235095,33.137567 63.643332,34.0860206 63.0259301,34.7961237 C62.7832965,35.0616907 62.6333892,35.4204536 62.6333892,35.8204536 C62.6333892,36.5544742 63.1379742,37.1581856 63.7963303,37.2703505 L73.3386291,37.2703505 L73.3386291,27.3915876 C73.3479017,26.5874639 73.9606673,25.9367423 74.7171586,25.9367423 C75.091927,25.9367423 75.4280595,26.1000412 75.6768748,26.3598351 L75.6768748,26.3557113 C76.342958,27.0146804 77.2308114,27.4204536 78.2098455,27.4204536 C80.5334095,27.4204536 82.3608884,25.1515876 81.8539852,22.5767423 C81.5510796,21.0344742 80.3587752,19.8089072 78.9060647,19.5268454" id="Fill-13" fill="#C1C1C1" mask="url(#mask-4)"></path>
                            <path d="M47.6600395,51.7522474 C46.446099,51.5683299 45.3272028,52.0021443 44.5258939,52.7963711 L44.5258939,52.7889485 C44.2724423,53.0536907 43.9301281,53.2194639 43.5468598,53.2194639 C42.8004139,53.2194639 42.1953754,52.5967835 42.1482396,51.8124536 L42.1482396,41.2293608 L32.7651208,41.2293608 C32.1075375,41.2293608 31.4986354,40.7716289 31.3479553,40.0887423 C31.2250931,39.5361649 31.3912276,39.0305979 31.7103602,38.681732 L31.7064966,38.681732 C32.4823059,37.7893608 32.8918466,36.5291546 32.6592584,35.1683299 C32.3895797,33.587299 31.2204568,32.2899794 29.7461102,31.9592577 C27.285775,31.4083299 25.1190728,33.3967835 25.1190728,35.926268 C25.1190728,36.9918351 25.5062047,37.9576082 26.1359701,38.681732 L26.1297884,38.681732 C26.4481483,39.0305979 26.6150555,39.5369897 26.4921933,40.0887423 C26.3415132,40.7716289 25.7326112,41.2293608 25.0750278,41.2293608 L15.6818637,41.2293608 C15.4678207,41.2293608 15.2939591,41.4149278 15.2939591,41.6433814 L15.2939591,51.8058557 C15.2846865,52.6264742 14.6595573,53.2887423 13.8883844,53.2887423 C13.5058888,53.2887423 13.1628019,53.1229691 12.9093503,52.8582268 L12.9093503,52.8623505 C12.0763599,52.038433 10.9026007,51.6021443 9.63379723,51.8421443 C8.14167812,52.1258557 6.91537411,53.3844124 6.60860493,54.9679175 C6.10015626,57.5889485 7.96086202,59.8941031 10.3269256,59.8941031 C11.3252777,59.8941031 12.2301309,59.4809072 12.9093503,58.8087423 L12.9093503,58.8153402 C13.1628019,58.5514227 13.5058888,58.3848247 13.8883844,58.3848247 C14.6595573,58.3848247 15.2846865,59.0479175 15.2939591,59.8685361 L15.2939591,69.0734845 C15.2939591,69.5254433 15.637046,69.8924536 16.0604957,69.8924536 L25.2736165,69.8924536 C25.969063,69.984 26.5084204,70.6091546 26.5084204,71.3753402 C26.5084204,71.7844124 26.3523313,72.1497732 26.1042887,72.4202887 L26.1081523,72.4202887 C25.3354339,73.3093608 24.9274386,74.5629691 25.1530724,75.9171959 C25.4181148,77.5089485 26.5980557,78.8178144 28.0816749,79.1460619 C30.5366011,79.6887423 32.6971216,77.7019381 32.6971216,75.1765773 C32.6971216,74.1110103 32.309217,73.1444124 31.6794515,72.4202887 L31.686406,72.4202887 C31.4383634,72.1497732 31.283047,71.7844124 31.283047,71.3753402 C31.283047,70.6091546 31.8224044,69.984 32.5163055,69.8924536 L41.760335,69.8924536 C41.9751507,69.8924536 42.1482396,69.7068866 42.1482396,69.478433 L42.1482396,59.7225567 C42.1953754,58.9382268 42.8004139,58.3155464 43.5468598,58.3155464 C43.9301281,58.3155464 44.2724423,58.4813196 44.5258939,58.7460619 L44.5258939,58.7427629 C45.2043406,59.4141031 46.1099665,59.8281237 47.1083186,59.8281237 C49.3538381,59.8281237 51.1279994,57.7530722 50.8869113,55.2986392 C50.692959,53.3275052 49.3422473,52.006268 47.6600395,51.7522474" id="Fill-14" fill="#54D318" mask="url(#mask-4)"></path>
                        </g>
                    </g>
                </g>
            </g>
        </g>
    </g>
</svg>