<?xml version="1.0"?>
<svg xmlns="http://www.w3.org/2000/svg" height="512px" viewBox="0 0 480 480" width="512px" class=""><g><path d="m432 464h-88v16h96c4.417969 0 8-3.582031 8-8v-104h-16zm0 0" data-original="#000000" class="active-path" data-old_color="#000000" fill="#FF7426"/><path d="m104 88c0-4.417969-3.582031-8-8-8h-32c-4.417969 0-8 3.582031-8 8v32c0 4.417969 3.582031 8 8 8h32c4.417969 0 8-3.582031 8-8zm-16 24h-16v-16h16zm0 0" data-original="#000000" class="active-path" data-old_color="#000000" fill="#FF7426"/><path d="m168 88c0-4.417969-3.582031-8-8-8h-32c-4.417969 0-8 3.582031-8 8v32c0 4.417969 3.582031 8 8 8h32c4.417969 0 8-3.582031 8-8zm-16 24h-16v-16h16zm0 0" data-original="#000000" class="active-path" data-old_color="#000000" fill="#FF7426"/><path d="m232 88c0-4.417969-3.582031-8-8-8h-32c-4.417969 0-8 3.582031-8 8v32c0 4.417969 3.582031 8 8 8h32c4.417969 0 8-3.582031 8-8zm-16 24h-16v-16h16zm0 0" data-original="#000000" class="active-path" data-old_color="#000000" fill="#FF7426"/><path d="m104 152c0-4.417969-3.582031-8-8-8h-32c-4.417969 0-8 3.582031-8 8v32c0 4.417969 3.582031 8 8 8h32c4.417969 0 8-3.582031 8-8zm-16 24h-16v-16h16zm0 0" data-original="#000000" class="active-path" data-old_color="#000000" fill="#FF7426"/><path d="m168 152c0-4.417969-3.582031-8-8-8h-32c-4.417969 0-8 3.582031-8 8v32c0 4.417969 3.582031 8 8 8h32c4.417969 0 8-3.582031 8-8zm-16 24h-16v-16h16zm0 0" data-original="#000000" class="active-path" data-old_color="#000000" fill="#FF7426"/><path d="m232 152c0-4.417969-3.582031-8-8-8h-32c-4.417969 0-8 3.582031-8 8v32c0 4.417969 3.582031 8 8 8h32c4.417969 0 8-3.582031 8-8zm-16 24h-16v-16h16zm0 0" data-original="#000000" class="active-path" data-old_color="#000000" fill="#FF7426"/><path d="m344 184v-32c0-4.417969-3.582031-8-8-8h-32c-4.417969 0-8 3.582031-8 8v32c0 4.417969 3.582031 8 8 8h32c4.417969 0 8-3.582031 8-8zm-16-8h-16v-16h16zm0 0" data-original="#000000" class="active-path" data-old_color="#000000" fill="#FF7426"/><path d="m408 184v-32c0-4.417969-3.582031-8-8-8h-32c-4.417969 0-8 3.582031-8 8v32c0 4.417969 3.582031 8 8 8h32c4.417969 0 8-3.582031 8-8zm-16-8h-16v-16h16zm0 0" data-original="#000000" class="active-path" data-old_color="#000000" fill="#FF7426"/><path d="m296 216v16h16v-8h24v-16h-32c-4.417969 0-8 3.582031-8 8zm0 0" data-original="#000000" class="active-path" data-old_color="#000000" fill="#FF7426"/><path d="m360 216v8h40v-16h-32c-4.417969 0-8 3.582031-8 8zm0 0" data-original="#000000" class="active-path" data-old_color="#000000" fill="#FF7426"/><path d="m104 216c0-4.417969-3.582031-8-8-8h-32c-4.417969 0-8 3.582031-8 8v32c0 4.417969 3.582031 8 8 8h32c4.417969 0 8-3.582031 8-8zm-16 24h-16v-16h16zm0 0" data-original="#000000" class="active-path" data-old_color="#000000" fill="#FF7426"/><path d="m168 216c0-4.417969-3.582031-8-8-8h-32c-4.417969 0-8 3.582031-8 8v32c0 4.417969 3.582031 8 8 8h32c4.417969 0 8-3.582031 8-8zm-16 24h-16v-16h16zm0 0" data-original="#000000" class="active-path" data-old_color="#000000" fill="#FF7426"/><path d="m232 240v-24c0-4.417969-3.582031-8-8-8h-32c-4.417969 0-8 3.582031-8 8v32c0 4.417969 3.582031 8 8 8h16v-16h-8v-16h16v16zm0 0" data-original="#000000" class="active-path" data-old_color="#000000" fill="#FF7426"/><path d="m96 272h-32c-4.417969 0-8 3.582031-8 8v32c0 4.417969 3.582031 8 8 8h32c4.417969 0 8-3.582031 8-8v-32c0-4.417969-3.582031-8-8-8zm-8 32h-16v-16h16zm0 0" data-original="#000000" class="active-path" data-old_color="#000000" fill="#FF7426"/><path d="m160 272h-32c-4.417969 0-8 3.582031-8 8v32c0 4.417969 3.582031 8 8 8h32c4.417969 0 8-3.582031 8-8v-32c0-4.417969-3.582031-8-8-8zm-8 32h-16v-16h16zm0 0" data-original="#000000" class="active-path" data-old_color="#000000" fill="#FF7426"/><path d="m298.992188 377.664062-26.992188-7.695312v-10.175781c10.035156-7.492188 15.964844-19.269531 16-31.792969v-8c4.417969 0 8-3.582031 8-8v-8c0-26.507812-21.492188-48-48-48s-48 21.492188-48 48v8c0 4.417969 3.582031 8 8 8v8c.035156 12.523438 5.964844 24.300781 16 31.792969v10.175781l-26.992188 7.695312c-17.148437 4.960938-28.96875 20.644532-29.007812 38.496094v55.839844c0 4.417969 3.582031 8 8 8h144c4.417969 0 8-3.582031 8-8v-55.839844c-.039062-17.851562-11.855469-33.539062-29.007812-38.496094zm-50.992188-105.664062c17.585938 0 31.875 14.191406 32 31.777344-2.292969-.554688-4.226562-2.097656-5.28125-4.210938l-3.558594-7.132812c-1.023437-2.058594-2.882812-3.574219-5.101562-4.164063-2.222656-.59375-4.585938-.199219-6.5 1.074219l-11.902344 7.9375c-6.570312 4.386719-14.292969 6.726562-22.191406 6.71875h-9.464844c0-17.671875 14.328125-32 32-32zm-22.535156 48c11.058594.011719 21.867187-3.265625 31.0625-9.40625l4.382812-2.921875c2.519532 4.445313 6.410156 7.953125 11.089844 10v10.328125c0 13.253906-10.746094 24-24 24s-24-10.746094-24-24v-8zm22.535156 48c2.6875.003906 5.367188-.265625 8-.800781v8.800781c.023438 2.277344 1.03125 4.4375 2.761719 5.921875l-10.761719 8.078125-10.761719-8.078125c1.730469-1.484375 2.738281-3.644531 2.761719-5.921875v-8.800781c2.632812.535156 5.3125.804687 8 .800781zm64 96h-16v-48h-16v48h-64v-48h-16v48h-16v-47.839844c.019531-10.710937 7.105469-20.125 17.390625-23.113281l17.410156-4.96875 24.398438 18.320313c2.84375 2.136718 6.757812 2.136718 9.601562 0l24.390625-18.308594 17.402344 4.964844c10.289062 2.976562 17.382812 12.390624 17.40625 23.105468zm0 0" data-original="#000000" class="active-path" data-old_color="#000000" fill="#FF7426"/><path d="m464 240h-128c-8.835938 0-16 7.164062-16 16v80c0 8.835938 7.164062 16 16 16h16v32c0 3.234375 1.949219 6.152344 4.9375 7.390625s6.429688.550781 8.71875-1.734375l37.65625-37.65625h60.6875c8.835938 0 16-7.164062 16-16v-80c0-8.835938-7.164062-16-16-16zm0 96h-64c-2.121094 0-4.15625.84375-5.65625 2.34375l-26.34375 26.34375v-20.6875c0-4.417969-3.582031-8-8-8h-24v-80h128zm0 0" data-original="#000000" class="active-path" data-old_color="#000000" fill="#FF7426"/><path d="m360 272h80v16h-80zm0 0" data-original="#000000" class="active-path" data-old_color="#000000" fill="#FF7426"/><path d="m360 304h80v16h-80zm0 0" data-original="#000000" class="active-path" data-old_color="#000000" fill="#FF7426"/><path d="m104 384h64v-16h-72c-4.417969 0-8 3.582031-8 8v88h-56v-416h224v192h16v-128h160v112h16v-120c0-4.417969-3.582031-8-8-8h-168v-48h8c4.417969 0 8-3.582031 8-8v-32c0-4.417969-3.582031-8-8-8h-272c-4.417969 0-8 3.582031-8 8v32c0 4.417969 3.582031 8 8 8h8v424c0 4.417969 3.582031 8 8 8h128v-16h-48zm-88-368h256v16h-256zm0 0" data-original="#000000" class="active-path" data-old_color="#000000" fill="#FF7426"/></g> </svg>
