<?xml version="1.0"?>
<svg xmlns="http://www.w3.org/2000/svg" xmlns:xlink="http://www.w3.org/1999/xlink" version="1.1" id="Capa_1" x="0px" y="0px" width="512px" height="512px" viewBox="0 0 411.184 411.184" style="enable-background:new 0 0 411.184 411.184;" xml:space="preserve" class=""><g><g>
	<g>
		<g>
			<rect x="10.592" y="100.678" width="113.049" height="81.553" data-original="#000000" class="active-path" data-old_color="#000000" fill="#FF7426"/>
			<path d="M123.641,12.583C123.641,5.644,117.995,0,111.057,0H23.175c-6.937,0-12.583,5.644-12.583,12.583v63.99h113.049V12.583     L123.641,12.583z" data-original="#000000" class="active-path" data-old_color="#000000" fill="#FF7426"/>
			<path d="M123.641,375.985v-63.993H10.592v63.993c0,6.938,5.646,12.581,12.583,12.581h87.882     C117.995,388.566,123.641,382.923,123.641,375.985z M67.116,338.681c6.396,0,11.598,5.203,11.598,11.6     c0,6.396-5.202,11.6-11.598,11.6s-11.601-5.203-11.601-11.6S60.72,338.681,67.116,338.681z" data-original="#000000" class="active-path" data-old_color="#000000" fill="#FF7426"/>
			<rect x="10.592" y="206.336" width="113.049" height="81.553" data-original="#000000" class="active-path" data-old_color="#000000" fill="#FF7426"/>
			<polygon points="247.544,150.212 154.016,97.704 137.999,126.232 137.999,177.5 209.645,217.722    " data-original="#000000" class="active-path" data-old_color="#000000" fill="#FF7426"/>
			<path d="M288.365,77.499c1.568-2.795,1.954-6.034,1.091-9.118c-0.866-3.085-2.884-5.649-5.682-7.219l-72.604-40.76     c-1.792-1.007-3.821-1.54-5.865-1.54c-4.336,0-8.348,2.349-10.471,6.129l-29.716,52.932l93.527,52.509L288.365,77.499z" data-original="#000000" class="active-path" data-old_color="#000000" fill="#FF7426"/>
			<polygon points="137.999,318.318 137.999,345.333 149.532,324.792    " data-original="#000000" class="active-path" data-old_color="#000000" fill="#FF7426"/>
			<polygon points="198.537,237.502 137.999,203.515 137.999,292.303 160.636,305.011    " data-original="#000000" class="active-path" data-old_color="#000000" fill="#FF7426"/>
			<polygon points="263.952,161.665 249.79,173.02 218.503,228.748 270.631,293.779 331.039,245.355 264.863,162.803    " data-original="#000000" class="active-path" data-old_color="#000000" fill="#FF7426"/>
			<path d="M397.96,176.333l-52.074-64.966c-2.288-2.857-5.704-4.496-9.368-4.496c-2.713,0-5.378,0.937-7.501,2.638l-47.363,37.967     l67.085,83.69l47.366-37.967C401.266,189.061,402.098,181.494,397.96,176.333z" data-original="#000000" class="active-path" data-old_color="#000000" fill="#FF7426"/>
			<path d="M141.327,366.215v9.771c0,11.634-9.466,21.098-21.103,21.098h-17.335l7.7,9.604c2.29,2.856,5.705,4.495,9.368,4.495     c2.715,0,5.377-0.937,7.499-2.637l47.365-37.97l-21.14-26.374L141.327,366.215z" data-original="#000000" class="active-path" data-old_color="#000000" fill="#FF7426"/>
			<polygon points="165.657,322.875 192.522,356.389 252.93,307.967 206.529,250.078    " data-original="#000000" class="active-path" data-old_color="#000000" fill="#FF7426"/>
		</g>
	</g>
</g></g> </svg>
