<svg xmlns="http://www.w3.org/2000/svg" width="130" height="130" viewBox="0 0 130 130"><defs><style>.a{fill:none;}.b{fill:#f2f2f2;}.c{fill:#1d4354;}.d{fill:#f3746b;}.e{fill:#ffcc0d;}.f{fill:#34ba08;}.g{fill:#e0e0e0;}.h{fill:#336278;}.i{fill:#6fda44;}</style></defs><title>HIW-milestones</title><rect class="a" width="130" height="130"/><rect class="b" x="5" y="17.64" width="120" height="94.86" rx="1.28"/><path class="c" d="M125,29V18.5a1,1,0,0,0-1-1H6a1,1,0,0,0-1,1V29Z"/><circle class="d" cx="15.48" cy="22.96" r="1.57"/><circle class="e" cx="23.81" cy="22.96" r="1.57"/><circle class="f" cx="32.14" cy="22.96" r="1.57"/><path class="g" d="M27,38.85a1.27,1.27,0,0,0-1.22,1.31v61.41a1.22,1.22,0,1,0,2.43.22.81.81,0,0,0,0-.22V40.16A1.26,1.26,0,0,0,27,38.85h0"/><path class="g" d="M51.16,38.85A1.25,1.25,0,0,0,50,40.16v61.41a1.21,1.21,0,0,0,2.42,0h0V40.16a1.26,1.26,0,0,0-1.21-1.31h0"/><path class="g" d="M75.32,38.85a1.26,1.26,0,0,0-1.21,1.31h0v61.41a1.21,1.21,0,0,0,2.42,0h0V40.16a1.26,1.26,0,0,0-1.21-1.31h0"/><path class="g" d="M99.48,38.85a1.26,1.26,0,0,0-1.21,1.31h0v61.41a1.21,1.21,0,1,0,2.42,0h0V40.16a1.26,1.26,0,0,0-1.21-1.31h0"/><path class="h" d="M24.75,46.36H53.5a5,5,0,0,1,5,5h0a5,5,0,0,1-5,5H24.75a5,5,0,0,1-5-5h0A5,5,0,0,1,24.75,46.36Z"/><path class="h" d="M48.86,65.86H77.61a5,5,0,0,1,5,5h0a5,5,0,0,1-5,5H48.86a5,5,0,0,1-5-5h0A5,5,0,0,1,48.86,65.86Z"/><path class="i" d="M73,85.37h28.75a5,5,0,0,1,5,5h0a5,5,0,0,1-5,5H73a5,5,0,0,1-5-5h0A5,5,0,0,1,73,85.37Z"/></svg>