<svg xmlns="http://www.w3.org/2000/svg" width="130" height="130" viewBox="0 0 130 130"><defs><style>.a{fill:none;}.b{fill:#f2f2f2;}.c{fill:#1d4354;}.d{fill:#f3746b;}.e{fill:#ffcc0d;}.f{fill:#34ba08;}.g{fill:#e0e0e0;}.h{fill:#6fda44;}.i{fill:#b2b2b2;}</style></defs><title>HIW-2</title><rect class="a" width="130" height="130"/><rect class="b" x="17.5" y="5" width="95" height="120" rx="1.28" transform="translate(130) rotate(90)"/><path class="c" d="M125.5,29V18.5a1,1,0,0,0-1-1H5.5a1,1,0,0,0-1,1V29Z"/><circle class="d" cx="15.48" cy="22.96" r="1.57"/><circle class="e" cx="23.81" cy="22.96" r="1.57"/><circle class="f" cx="32.14" cy="22.96" r="1.57"/><rect class="g" x="47.29" y="41.56" width="34.79" height="53.08"/><rect class="h" x="53.69" y="80.75" width="22.53" height="6.82"/><path class="h" d="M75.79,60A11.08,11.08,0,1,1,64.71,48.88,11.08,11.08,0,0,1,75.79,60"/><path class="f" d="M68.53,58.89a3.63,3.63,0,1,1-3.62-3.63,3.63,3.63,0,0,1,3.62,3.63"/><path class="a" d="M64.4,64a4.21,4.21,0,0,0,.5,0,4,4,0,0,0,.5,0,4,4,0,0,1-.49,0A4.36,4.36,0,0,1,64.4,64Z"/><path class="f" d="M68.12,62.85A5,5,0,0,1,65.4,64a4,4,0,0,1-.5,0,4.21,4.21,0,0,1-.5,0,5,5,0,0,1-2.71-1.12,7.77,7.77,0,0,0-4.34,5.38,11.05,11.05,0,0,0,15.05-.3A7.78,7.78,0,0,0,68.12,62.85Z"/><path class="g" d="M113.46,60a11.09,11.09,0,1,1-11.09-11.08A11.09,11.09,0,0,1,113.46,60"/><path class="i" d="M106.2,58.89a3.63,3.63,0,1,1-3.63-3.63,3.64,3.64,0,0,1,3.63,3.63"/><path class="a" d="M102.07,64a4,4,0,0,0,.5,0,4.21,4.21,0,0,0,.5,0,4.19,4.19,0,0,1-.5,0A4.07,4.07,0,0,1,102.07,64Z"/><path class="i" d="M105.79,62.85A5.08,5.08,0,0,1,103.07,64a4.21,4.21,0,0,1-.5,0,4,4,0,0,1-.5,0,5.05,5.05,0,0,1-2.72-1.12A7.77,7.77,0,0,0,95,68.23a11.05,11.05,0,0,0,15-.3A7.77,7.77,0,0,0,105.79,62.85Z"/><path class="g" d="M38.94,60A11.08,11.08,0,1,1,27.86,48.88,11.08,11.08,0,0,1,38.94,60"/><path class="i" d="M31.69,58.89a3.63,3.63,0,1,1-3.63-3.63,3.64,3.64,0,0,1,3.63,3.63"/><path class="a" d="M27.55,64a4.38,4.38,0,0,0,.51,0,4.21,4.21,0,0,0,.5,0,4.19,4.19,0,0,1-.5,0A4.36,4.36,0,0,1,27.55,64Z"/><path class="i" d="M31.28,62.85A5.08,5.08,0,0,1,28.56,64a4.21,4.21,0,0,1-.5,0,4.38,4.38,0,0,1-.51,0,5.05,5.05,0,0,1-2.71-1.12,7.77,7.77,0,0,0-4.34,5.38,11.05,11.05,0,0,0,15-.3A7.77,7.77,0,0,0,31.28,62.85Z"/><path class="c" d="M75.78,100.68l2.84-4.47,1.65-1,1-1.65,4.47-2.84a.2.2,0,0,0-.1-.33l-15.58-5.6a.2.2,0,0,0-.24.24l5.6,15.58A.2.2,0,0,0,75.78,100.68Z"/><path class="c" d="M79,95.66h7.52a0,0,0,0,1,0,0v3.8a0,0,0,0,1,0,0H79a.3.3,0,0,1-.3-.3V96A.3.3,0,0,1,79,95.66Z" transform="translate(72.11 224.99) rotate(-135)"/></svg>