<?xml version="1.0" encoding="UTF-8"?>
<svg width="141px" height="30px" viewBox="0 0 141 30" version="1.1" xmlns="http://www.w3.org/2000/svg" xmlns:xlink="http://www.w3.org/1999/xlink">
    <!-- Generator: Sketch 60.1 (88133) - https://sketch.com -->
    <title>logo-GoDaddy</title>
    <desc>Created with Sketch.</desc>
    <g id="Design-R5" stroke="none" stroke-width="1" fill="none" fill-rule="evenodd">
        <g id="Toggle-R5-(XL)-&gt;1200---Desktop" transform="translate(-1365.000000, -3411.000000)" fill="#FFFFFF" fill-rule="nonzero">
            <g id="Page-Bottom" transform="translate(0.000000, 2140.000000)">
                <g id="Case-Studies" transform="translate(730.000000, 583.000000)">
                    <g id="Secondary-case-study---tangerine" transform="translate(585.000000, 625.000000)">
                        <g id="logo-GoDaddy" transform="translate(50.000000, 63.000000)">
                            <path d="M32.8806918,6.4670845 C28.4014823,6.6584687 24.9028768,10.4407771 25.0218864,14.9631624 C25.140896,19.4855477 28.8334986,23.0751581 33.3164611,23.0263891 C37.7994235,22.97762 41.4144767,19.3085114 41.4368391,14.7845882 C41.3986039,12.535585 40.474839,10.3944272 38.8695061,8.83386933 C37.2641731,7.27331149 35.1093079,6.42170682 32.8806918,6.4670845 Z M32.8806918,17.9375549 C31.5938674,17.9559028 30.423809,17.1872076 29.9197584,15.9923057 C29.4157078,14.7974038 29.6777533,13.4135643 30.582887,12.4903809 C31.4880207,11.5671976 32.8565123,11.287985 34.0459723,11.7838095 C35.2354324,12.2796339 36.0096725,13.4520406 36.0052534,14.7506853 C36.0142269,15.5927627 35.6889987,16.4034694 35.1020543,17.0021183 C34.5151099,17.6007672 33.7152311,17.9376036 32.8806918,17.9375549 Z M53.3639292,0.477577759 L44.0574392,0.477577759 C43.853542,0.471502669 43.655753,0.548225493 43.5083899,0.690555296 C43.3610268,0.832885099 43.2764099,1.02892233 43.2734165,1.23474182 L43.2734165,21.7572781 C43.2704498,21.9680103 43.3520638,22.1710139 43.4997472,22.32004 C43.6474307,22.469066 43.8486055,22.5514219 44.0574392,22.548345 L53.3639292,22.548345 C56.3230798,22.6886775 59.2036321,21.563023 61.2973107,19.4481596 C63.3909893,17.3332961 64.5035703,14.4254128 64.3614903,11.4395052 C64.3614903,4.85104777 59.803438,0.477577759 53.3639292,0.477577759 Z M53.2407386,17.3386043 L48.8954701,17.3386043 L48.8954701,5.67601757 L53.2407386,5.67601757 C54.7019018,5.71643369 56.0846564,6.35185328 57.0740895,7.43756382 C58.0635226,8.52327437 58.5753974,9.96684245 58.493138,11.4395052 C58.493138,14.5359672 56.3653003,17.3386043 53.2407386,17.3386043 L53.2407386,17.3386043 Z M81.2386029,6.94172465 L77.330101,6.94172465 C76.9342535,6.94172465 76.6133557,7.26553972 76.6133557,7.66498584 L76.6133557,8.139626 C75.6269489,6.96939493 74.1442903,6.34740528 72.6264598,6.4670845 C70.5074227,6.48980734 68.48777,7.37725298 67.0277584,8.92718227 C65.5677468,10.4771116 64.7917651,12.557475 64.876651,14.6941805 C64.76672,16.8461649 65.5315168,18.9502735 66.9942728,20.5201804 C68.4570288,22.0900873 70.4911402,22.9899147 72.6264598,23.0116842 C74.143878,23.1231023 75.6248455,22.5077484 76.6245548,21.3504437 L76.6245548,21.8137829 C76.618401,22.0084688 76.6915629,22.1971974 76.8269936,22.3359947 C76.9624243,22.4747919 77.148296,22.5515359 77.3413002,22.548345 L81.249802,22.548345 C81.4428062,22.5515359 81.6286779,22.4747919 81.7641086,22.3359947 C81.8995393,22.1971974 81.9727012,22.0084688 81.9665473,21.8137829 L81.9665473,7.66498584 C81.9697094,7.4702271 81.8936568,7.28266566 81.75611,7.14600376 C81.6185632,7.00934186 81.4315348,6.93551487 81.2386029,6.94172465 L81.2386029,6.94172465 Z M73.3992009,17.9714578 C72.10249,17.9990112 70.9181963,17.2320058 70.4029318,16.0309302 C69.8876673,14.8298547 70.1439043,13.4335706 71.0512128,12.4983245 C71.9585212,11.5630785 73.3364617,11.2748658 74.5374092,11.7691449 C75.7383567,12.263424 76.5234751,13.4418961 76.5237625,14.7506853 C76.5488545,16.4916032 75.180082,17.9282693 73.4551966,17.9714578 L73.3992009,17.9714578 Z M98.9556514,0.477577759 L95.0247512,0.477577759 C94.6289037,0.477577759 94.3080059,0.801392824 94.3080059,1.20083895 L94.3080059,7.98141262 C93.254702,6.89067252 91.782717,6.31715593 90.2763134,6.41057972 C88.1690663,6.45279025 86.1700458,7.36049153 84.7411629,8.92394233 C83.31228,10.4873931 82.577169,12.5713155 82.705691,14.6941805 C82.5959447,16.8403565 83.3562186,18.9392266 84.8116633,20.5080881 C86.267108,22.0769496 88.292452,22.9807691 90.4219023,23.0116842 C91.9350944,23.0971967 93.405212,22.4863511 94.4199973,21.3504437 L94.4199973,21.8137829 C94.4138435,22.0084688 94.4870054,22.1971974 94.6224361,22.3359947 C94.7578668,22.4747919 94.9437385,22.5515359 95.1367427,22.548345 L99.0452445,22.548345 C99.2382487,22.5515359 99.4241204,22.4747919 99.5595511,22.3359947 C99.6949818,22.1971974 99.7681437,22.0084688 99.7619898,21.8137829 L99.7619898,1.20083895 C99.7655184,1.001961 99.6864383,0.810661792 99.5439003,0.673268332 C99.4013623,0.535874872 99.2083652,0.464916692 99.0116471,0.477577759 L98.9556514,0.477577759 Z M91.1162494,17.9714578 C89.8195385,17.9990112 88.6352448,17.2320058 88.1199803,16.0309302 C87.6047158,14.8298547 87.8609528,13.4335706 88.7682612,12.4983245 C89.6755696,11.5630785 91.0535102,11.2748658 92.2544577,11.7691449 C93.4554052,12.263424 94.2405236,13.4418961 94.240811,14.7506853 C94.2666189,16.4703481 92.9310601,17.898209 91.2282408,17.9714578 L91.1162494,17.9714578 Z M116.683899,0.477577759 L112.708202,0.477577759 C112.312355,0.477577759 111.991457,0.801392824 111.991457,1.20083895 L111.991457,7.98141262 C110.939848,6.88808377 109.466637,6.31408936 107.959764,6.41057972 C105.853013,6.43828818 103.848537,7.33161212 102.409209,8.8842648 C100.969881,10.4369175 100.220151,12.5146515 100.333146,14.6376758 C100.223343,16.7857851 100.985125,18.8863974 102.443005,20.4556064 C103.900885,22.0248155 105.929149,22.9273071 108.060557,22.9551795 C109.573472,23.0390401 111.04291,22.4284766 112.058652,21.2939389 L112.058652,21.7572781 C112.052498,21.951964 112.12566,22.1406926 112.261091,22.2794899 C112.396521,22.4182871 112.582393,22.4950311 112.775397,22.4918403 L116.683899,22.4918403 C116.876903,22.4950311 117.062775,22.4182871 117.198206,22.2794899 C117.333636,22.1406926 117.406798,21.951964 117.400644,21.7572781 L117.400644,1.20083895 C117.409977,0.839885402 117.150061,0.529037275 116.79589,0.477577759 L116.683899,0.477577759 Z M108.844497,17.9714578 C107.547786,17.9990112 106.363492,17.2320058 105.848228,16.0309302 C105.332963,14.8298547 105.5892,13.4335706 106.496509,12.4983245 C107.403817,11.5630785 108.781758,11.2748658 109.982705,11.7691449 C111.183653,12.263424 111.968771,13.4418961 111.969059,14.7506853 C111.996098,16.4495378 110.693178,17.8688861 109.012484,17.9714578 L108.844497,17.9714578 Z M135.341676,7.50677246 C135.33201,7.73009264 135.29052,7.95084397 135.218485,8.16222791 L130.626835,24.8085363 C129.920396,28.0086502 127.003206,30.2080289 123.761759,29.9843742 C121.937284,30.0161328 120.15898,29.4046542 118.733343,28.2553279 C118.549775,28.0805329 118.437876,27.8426025 118.419767,27.5885715 C118.43639,27.3469797 118.521961,27.1154085 118.666148,26.9218151 L120.133236,24.6616238 C120.289345,24.458693 120.528239,24.33816 120.782786,24.3338961 C121.085098,24.3315297 121.377124,24.444558 121.600324,24.6503229 C122.119709,25.0565202 122.747661,25.2966029 123.403386,25.3396812 C124.17373,25.3828959 124.87299,24.8875627 125.094457,24.1417799 L125.598419,22.570947 L123.2242,22.570947 C122.775186,22.5674546 122.386683,22.2547607 122.283472,21.8137829 L118.318974,8.18482983 C118.245236,7.97341916 118.200033,7.75295461 118.184585,7.52937437 C118.184585,7.2129476 118.408567,6.96432657 118.845334,6.96432657 L123.526577,6.96432657 C123.91929,7.00416819 124.231536,7.31455051 124.27692,7.71018967 L126.875122,17.4855167 L127.065507,17.4855167 L129.159747,7.71018967 C129.205131,7.31455051 129.517377,7.00416819 129.91009,6.96432657 L134.658528,6.96432657 C135.072896,6.94172465 135.341676,7.19034569 135.341676,7.50677246 Z M23.5742017,11.8237377 L23.5742017,21.7572781 C23.5742017,22.1941723 23.2232197,22.548345 22.7902615,22.548345 L19.5425092,22.548345 C19.3345954,22.548345 19.1351971,22.4650007 18.9881798,22.3166469 C18.8411625,22.1682931 18.758569,21.9670821 18.758569,21.7572781 L18.758569,19.4970869 C16.892792,21.8544783 14.0171996,23.1623613 11.0311585,23.0116842 C4.69244205,23.0116842 0,18.1974769 0,11.5073109 C0.0022305159,8.40955223 1.24117415,5.44333808 3.437028,3.278558 C5.63288184,1.11377792 8.60044014,-0.0669832039 11.6695098,0.0029376027 C16.5747356,0.0029376027 20.5056358,2.1162164 22.2862999,6.15065773 C22.5102828,6.62529788 22.6670709,7.38246194 21.3455717,7.63108298 L17.8850357,8.26393652 C17.3375856,8.37389647 16.7789011,8.13675786 16.4739433,7.66498584 C15.3886212,6.15025942 13.6450073,5.25789923 11.7927004,5.26918315 C10.1636507,5.25083429 8.60008206,5.91537668 7.47494021,7.1043023 C6.34979836,8.29322792 5.76395736,9.89994416 5.8571532,11.5412138 C5.75521116,14.1462496 7.31955329,16.5238525 9.73831995,17.4400982 C12.1570866,18.356344 14.8854871,17.604862 16.5075408,15.5756551 L13.450174,15.5756551 C13.2422601,15.5756551 13.0428619,15.4923108 12.8958445,15.343957 C12.7488272,15.1956032 12.6662338,14.9943922 12.6662338,14.7845882 L12.6662338,11.8237377 C12.6662338,11.6139337 12.7488272,11.4127227 12.8958445,11.2643689 C13.0428619,11.1160151 13.2422601,11.0326708 13.450174,11.0326708 L22.7902615,11.0326708 C23.2232197,11.0326708 23.5742017,11.3868435 23.5742017,11.8237377 L23.5742017,11.8237377 Z M137.290327,2.98639002 C137.335391,2.99211766 137.369077,3.03096663 137.368724,3.07679766 L137.368724,3.37062252 C137.368724,3.41431194 137.333623,3.44972922 137.290327,3.44972922 L136.59598,3.44972922 L136.59598,5.3595908 C136.591095,5.4010675 136.558689,5.43376829 136.517586,5.43869749 L136.159213,5.43869749 C136.115918,5.43869749 136.080819,5.40328022 136.080819,5.3595908 L136.080819,3.44972922 L135.341676,3.44972922 C135.341676,3.44972922 135.274481,3.44972922 135.274481,3.37062252 L135.274481,3.07679766 C135.274481,3.07679766 135.274481,2.98639002 135.341676,2.98639002 L137.290327,2.98639002 Z M140.213304,3.06549671 L140.213304,5.32568793 C140.213304,5.32568793 140.213304,5.40479462 140.146109,5.40479462 L139.821334,5.40479462 C139.778038,5.40479462 139.74294,5.36937735 139.74294,5.32568793 L139.74294,3.63054451 L139.182983,4.88495064 C139.171784,4.93673925 139.123046,4.97116562 139.070991,4.96405733 L138.791013,4.96405733 C138.791013,4.96405733 138.712619,4.96405733 138.69022,4.88495064 L138.130263,3.63054451 L138.130263,5.3595908 C138.130263,5.40328022 138.095165,5.43869749 138.051869,5.43869749 L137.704695,5.43869749 C137.665821,5.43303763 137.637098,5.39922234 137.637496,5.3595908 L137.637496,3.09939958 C137.642385,3.05792287 137.674792,3.02522208 137.715895,3.02029288 L138.29825,3.02029288 C138.34905,3.01794613 138.395039,3.05043149 138.410242,3.09939958 L138.936601,4.31990284 L139.47416,3.09939958 C139.496139,3.05588516 139.538111,3.02623767 139.586152,3.02029288 L140.157308,3.02029288 C140.182109,3.02535846 140.202962,3.04219252 140.213304,3.06549671 L140.213304,3.06549671 Z" id="Shape"></path>
                        </g>
                    </g>
                </g>
            </g>
        </g>
    </g>
</svg>