<?xml version="1.0" encoding="UTF-8"?>
<svg width="55px" height="55px" viewBox="0 0 55 55" version="1.1" xmlns="http://www.w3.org/2000/svg" xmlns:xlink="http://www.w3.org/1999/xlink">
    <!-- Generator: Sketch 60 (88103) - https://sketch.com -->
    <title>logo-ge</title>
    <desc>Created with Sketch.</desc>
    <g id="Design-R5" stroke="none" stroke-width="1" fill="none" fill-rule="evenodd">
        <g id="Toggle-(LG)-992-1199---Tablet-(Landscape)" transform="translate(-179.000000, -3385.000000)">
            <g id="Secondary-case-study---coral" transform="translate(129.000000, 3335.000000)">
                <g id="logo-ge" transform="translate(50.000000, 50.000000)">
                    <rect id="bg" x="0.538567131" y="0" width="53.5652174" height="55"></rect>
                    <path d="M46.5046311,7.94680989 C41.1752991,2.64943028 34.7663937,0 27.2761272,0 C19.7843708,0 13.3736776,2.64943028 8.04434565,7.94680989 C2.71501369,13.2441895 0.0510926673,19.6155584 0.0510926673,27.0609166 C0.0510926673,34.5575158 2.71501369,40.9413248 8.04434565,46.2138243 C13.3736776,51.4863239 19.7843708,54.121537 27.2761272,54.121537 C34.7663937,54.121537 41.1752991,51.4863239 46.5046311,46.2138243 C51.8339629,40.9413248 54.4993739,34.5575158 54.4993739,27.0609166 C54.4993739,19.6155584 51.8339629,13.2441895 46.5046311,7.94680989 Z M45.6163297,45.2558715 C40.569269,50.2973857 34.4548758,52.8174036 27.274638,52.8174036 C20.1444036,52.8174036 14.0425112,50.2973857 8.97044881,45.2558715 C3.8983865,40.2140615 1.36309945,34.1489287 1.36309945,27.0616555 C1.36309945,19.9244136 3.8983865,13.8465668 8.97044881,8.82988914 C14.0425112,3.81321145 20.1444036,1.30413342 27.274638,1.30413342 C34.4045748,1.30413342 40.5064672,3.82592537 45.5785296,8.86743957 C50.6505918,13.9089537 53.1873671,19.9743823 53.1873671,27.0616555 C53.1873671,34.1489287 50.6630927,40.2140615 45.6163297,45.2558715 Z M47.8279011,14.5220864 C45.3647994,10.5263545 41.8962041,7.85464347 37.4242002,6.50547375 C35.2625082,5.85603789 33.4293291,5.53117203 31.9213866,5.53117203 C30.2624414,5.53117203 28.8816748,5.9433197 27.7758107,6.76791093 C26.6699465,7.5922063 25.8672791,8.00287462 25.3645323,8.00287462 C24.1079633,8.00287462 23.4795298,7.40344088 23.4795298,6.20427753 C23.4795298,5.30631041 23.9554714,4.56929687 24.9106306,3.99471625 C25.8657899,3.42013564 27.1476751,3.13284534 28.7559882,3.13284534 C31.3182692,3.13284534 33.2533081,3.45771119 34.5605093,4.10714706 L34.6358618,3.88228544 C32.2731307,3.03284108 29.7111475,2.60826685 26.9481251,2.60826685 C22.3233314,2.60826685 18.2030715,3.73257494 14.5855584,5.97941592 C10.6142162,8.42774473 7.95156456,11.8752284 6.59611402,16.3206834 C5.94266235,18.4192933 5.61593653,20.24156 5.61593653,21.7904423 C5.61593653,23.4393289 6.02903473,24.824299 6.85820949,25.948607 C7.68768209,27.0729152 8.10256729,27.8833046 8.10256729,28.3827341 C8.10256729,29.5818974 7.49915205,30.181627 6.29291721,30.181627 C4.23189374,30.181627 3.20316902,28.4345115 3.20316902,24.9367298 C3.20316902,22.8881221 3.50457881,20.966147 4.10769623,19.1672541 L3.88163889,19.0923988 C3.07718449,22.2901677 2.67510622,24.8367256 2.67510622,26.7338475 C2.67510622,31.3807904 3.80479726,35.5013796 6.06656203,39.0973903 C8.52996161,43.0445993 11.9967699,45.6914572 16.4705609,47.0388517 C18.5801315,47.6885835 20.4147999,48.0131535 21.9730765,48.0131535 C23.6305326,48.0131535 25.0112992,47.5900586 26.1171633,46.7406142 C27.2230275,45.8911699 28.0271841,45.4665956 28.5299308,45.4665956 C29.7864999,45.4665956 30.4149334,46.0911784 30.4149334,47.3403439 C30.4149334,48.1897882 29.9375026,48.9001734 28.9823434,49.474754 C28.0271841,50.0493346 26.747086,50.3366249 25.138475,50.3366249 C22.7757439,50.3366249 20.8421942,50.036908 19.3342517,49.4371785 L19.2586014,49.6620401 C21.0164281,50.4614823 23.5787092,50.8612034 26.9466359,50.8612034 C31.5696426,50.8612034 35.6899025,49.7386705 39.3092027,47.4900544 C43.2787578,45.0417255 45.9411116,41.5957213 47.2983491,37.1487868 C47.9520987,35.0016542 48.2788245,33.2030572 48.2788245,31.7538832 C48.2788245,30.0567697 47.8639393,28.6466506 47.0344666,27.5226384 C46.2052919,26.3983304 45.7918959,25.6113146 45.7918959,25.1615914 C45.7918959,23.9124259 46.3953111,23.2878432 47.6015459,23.2878432 C48.5048818,23.2878432 49.246195,23.775142 49.8242943,24.7494437 C50.4023934,25.7237454 50.691592,27.0087112 50.691592,28.6075957 C50.691592,30.3564866 50.3898843,32.2802369 49.786767,34.3770715 L50.0128243,34.4522227 C50.8172786,32.0553753 51.219357,29.4836684 51.219357,26.7356228 C51.219357,22.1401613 50.0884745,18.0695743 47.8279011,14.5220864 Z M39.9602293,38.9461614 C38.576445,40.3699403 36.8549124,41.0802027 34.7920544,41.0802027 C32.3267601,41.0802027 30.3661506,40.1812075 28.9087354,38.3826254 C27.6006688,36.8354897 26.9466354,34.9872099 26.9466354,32.8389691 C26.9466354,28.9439147 28.7310672,26.0726913 32.3032101,24.2244115 C32.051613,24.0244374 31.8000158,23.7247724 31.5484187,23.3251203 C29.4354797,24.8240374 27.1225149,26.2726652 24.6086302,27.6698204 C24.4074121,30.8670368 24.0803955,33.1386343 23.6275802,34.4875709 C22.1683764,38.8837434 19.7048707,41.0802027 16.2346784,41.0802027 C14.8261517,41.0802027 13.7443437,40.6557019 12.9895522,39.8064043 C12.2350589,38.9571067 11.8591536,37.9344589 11.8591536,36.7355028 C11.8591536,34.8372294 12.7632936,33.0652711 14.5745546,31.4166693 C15.530266,30.5673717 16.7110436,29.7180741 18.1198683,28.8687766 C18.8242807,28.4691245 20.2816959,27.6964441 22.495393,26.5474814 C22.5961511,25.9478554 22.6715707,25.4733611 22.7219497,25.1237025 C21.9671582,25.8230197 20.9610678,26.1726782 19.7048707,26.1726782 C17.9940698,26.1726782 16.9376003,25.2500174 16.5351641,23.4017376 C14.0698698,23.2017637 12.8136726,21.8531228 12.7632936,19.3552235 C12.7129146,17.2084619 13.3165688,16.1343415 14.5745546,16.1343415 C14.9769908,16.1343415 15.1782089,16.3591643 15.1782089,16.8088099 C15.1782089,16.8588033 15.1153096,17.146044 14.989511,17.6705319 C14.8637125,18.1953156 14.8008132,18.6573855 14.8008132,19.0552626 C14.8008132,20.5541797 15.3543865,21.3034903 16.461235,21.3034903 C16.461235,19.2567157 17.1009596,17.2599345 18.3839858,15.3116676 C19.6670119,13.3634009 21.1119069,12.3892675 22.7219497,12.3892675 C24.4324525,12.3892675 25.287704,13.1885716 25.287704,14.7857008 C25.287704,16.4842959 24.5961099,18.1825953 23.2123256,19.8797114 C21.8288395,21.5783066 20.3839445,22.6757967 18.8746598,23.1754357 C19.0758778,23.9247463 19.5033546,24.2992537 20.157686,24.2992537 C21.2627459,24.2992537 22.3195135,23.6747789 23.325604,22.4258293 C23.8287983,19.8797114 24.8083578,18.6059129 26.2672634,18.6059129 C26.8712159,18.6059129 27.1728939,18.9304268 27.1728939,19.5800463 C27.1728939,20.4293439 26.4684816,21.6031555 25.0614454,23.1002976 C24.9106064,23.8496082 24.8348887,24.5992147 24.8348887,25.3485252 C27.3994506,23.8013897 29.3865911,22.5272953 30.7954158,21.5283131 C30.6946577,21.1786546 30.6445768,20.6041732 30.6445768,19.8048691 C30.6445768,17.9577725 31.1713211,16.2609522 32.2277906,14.7123376 C33.2842601,13.163427 34.5672863,12.3892675 36.076571,12.3892675 C37.8359624,12.3892675 38.7165525,13.2385651 38.7165525,14.9353853 C38.7165525,17.0336326 36.9556705,19.405217 33.4350991,22.0513219 C33.7370753,22.750639 34.1395116,23.2251333 34.6427058,23.4751008 C34.7434639,23.2751269 35.3706681,23.1754357 36.5278958,23.1754357 C37.9868015,23.1754357 38.7165525,23.5499431 38.7165525,24.2992537 C38.7165525,25.1485513 37.861301,25.573348 36.1519906,25.573348 C35.7999334,25.6233416 35.2716986,25.573348 34.5672863,25.4233676 C31.3472006,26.2726652 29.7389463,28.6457287 29.7389463,32.5393041 C29.7389463,34.2376034 30.2278318,35.6989515 31.2088818,36.9230523 C32.1899317,38.1468573 33.4350991,38.7574286 34.944682,38.7574286 C36.2023696,38.7574286 37.2573486,38.334111 38.1126,37.4848133 C38.9678515,36.6358116 39.3956262,35.5365466 39.3956262,34.1879058 C39.4460053,31.7414791 38.5907539,30.5173783 36.8313624,30.5173783 C35.7245139,30.5173783 35.1459001,31.0670108 35.095521,32.1659799 C35.095521,32.7156125 35.2716986,33.2152514 35.6237558,33.6648971 C35.9761111,34.1145426 36.1519906,34.4875709 36.1519906,34.7872359 C36.1519906,35.4365596 35.7999334,35.7613694 35.095521,35.7613694 C34.3407296,35.7613694 33.7120348,35.4365596 33.2088405,34.7872359 C32.7056463,34.1379123 32.4540492,33.3386082 32.4540492,32.3893236 C32.4540492,31.24184 32.8928536,30.2677067 33.7731455,29.4684026 C34.6537355,28.6690985 35.7227253,28.2694464 36.980711,28.2694464 C38.5403748,28.2694464 39.7712334,28.8439278 40.6768638,29.9928904 C41.5824943,31.1418531 42.0353095,32.5393041 42.0353095,34.1879058 C42.0353095,35.9361987 41.3437155,37.5223825 39.9602293,38.9461614 Z M36.2881678,14.3454676 C35.7175096,14.3454676 35.111643,14.8697452 34.469723,15.9180182 C33.8280846,16.9665733 33.5072654,18.1801997 33.5072654,19.5620013 C35.6938495,17.6573331 36.7872824,16.180157 36.7872824,15.131884 C36.7872824,14.6076065 36.620817,14.3454676 36.2881678,14.3454676 Z M23.1128431,14.3454676 C22.3207049,14.3454676 21.4494155,15.1237229 20.4989748,16.6802333 C19.5485342,18.2367438 19.0751909,19.630874 19.0751909,20.8661347 C20.3422366,20.2239279 21.423136,19.2865107 22.3207049,18.05125 C23.2182737,16.8159891 23.6672147,15.7536415 23.6672147,14.8644995 C23.6672147,14.5186733 23.4823199,14.3454676 23.1128431,14.3454676 Z M14.4831672,36.5149039 C14.4831672,37.8194929 15.0751256,38.471936 16.2587375,38.471936 C17.8013062,38.471936 19.1654638,37.3946324 20.3493807,35.2370544 C21.3256088,33.4309518 21.9947262,31.2499025 22.3552078,28.6909352 C17.1065708,31.1996917 14.4831672,33.807087 14.4831672,36.5149039 L14.4831672,36.5149039 Z" id="Fill-1" fill="#FFFFFF" fill-rule="nonzero"></path>
                </g>
            </g>
        </g>
    </g>
</svg>