<svg xmlns="http://www.w3.org/2000/svg" width="130" height="130" viewBox="0 0 130 130"><defs><style>.a{fill:none;}.b{fill:#1d4354;}.c{fill:#fff;}.d{fill:#336278;}.e{fill:#6fda44;}.f{fill:#c4c4c4;}.g{fill:#f2f2f2;}.h{fill:#f3756c;}.i{fill:#b2b2b2;}</style></defs><title>HIW-3</title><rect class="a" width="130" height="130"/><path class="b" d="M121.85,104.17H7.83V26.91a1.28,1.28,0,0,1,1.28-1.28H120.56a1.28,1.28,0,0,1,1.29,1.28Z"/><rect class="c" x="14.22" y="32.11" width="101.23" height="66"/><rect class="d" x="4.84" y="104.19" width="120" height="8.21" rx="1"/><rect class="e" x="57.34" y="104.17" width="14.99" height="3.15"/><path class="f" d="M75.94,82.22H28.47a1.25,1.25,0,0,1,0-2.5H75.94a1.25,1.25,0,0,1,0,2.5Z"/><path class="f" d="M75.94,90.81H28.47a1.25,1.25,0,0,1,0-2.5H75.94a1.25,1.25,0,0,1,0,2.5Z"/><path class="f" d="M49.09,73.64H28.47a1.25,1.25,0,0,1,0-2.5H49.09a1.25,1.25,0,0,1,0,2.5Z"/><path class="f" d="M75.46,73.64H54.84a1.25,1.25,0,0,1,0-2.5H75.46a1.25,1.25,0,0,1,0,2.5Z"/><rect class="g" x="17.67" y="17.64" width="33.82" height="33.82" rx="1"/><circle class="h" cx="28.64" cy="27.07" r="3.67"/><path class="i" d="M46.77,29.15a.63.63,0,0,0-.92,0L33.91,42a.65.65,0,0,1-.83.1l-7.92-6.63a.66.66,0,0,0-.8.07l-6.68,6.32v8.65a1,1,0,0,0,1,1l31.82,0a1,1,0,0,0,1-1V33.94Z"/><rect class="e" x="58.46" y="17.6" width="66.7" height="45.63" rx="1" transform="translate(183.63 80.82) rotate(-180)"/><path class="e" d="M114.21,60H99.89a1.1,1.1,0,0,0-1.11,1.11V74a1.08,1.08,0,0,0,1.81.81L115,61.89A1.11,1.11,0,0,0,114.21,60Z"/><circle class="c" cx="78.18" cy="40.11" r="2.8"/><circle class="c" cx="91.81" cy="40.11" r="2.8"/><circle class="c" cx="105.45" cy="40.11" r="2.8"/></svg>