<?xml version="1.0" encoding="UTF-8"?>
<svg width="110px" height="105px" viewBox="0 0 110 105" version="1.1" xmlns="http://www.w3.org/2000/svg" xmlns:xlink="http://www.w3.org/1999/xlink">
    <!-- Generator: Sketch 51.2 (57519) - http://www.bohemiancoding.com/sketch -->
    <title>changelog</title>
    <desc>Created with Sketch.</desc>
    <defs></defs>
    <g id="Page-2" stroke="none" stroke-width="1" fill="none" fill-rule="evenodd">
        <g id="changelog">
            <rect id="Rectangle-7" fill="#FFFFFF" x="0" y="0" width="110" height="105" rx="5"></rect>
            <g id="DevCenter_4114_Icon-GettingStarted_SJ" transform="translate(30.000000, 3.000000)" fill="#334CAF" fill-rule="nonzero">
                <path d="M49.3357143,76.0673994 L42.502381,68.0173994 C45.7690477,54.2340661 46.4690477,38.7590661 41.0190477,23.6340661 C35.4690477,8.33406607 26.3107143,0.692399401 25.9190477,0.375732735 C25.3055506,-0.125244245 24.4242114,-0.125244245 23.8107143,0.375732735 C23.427381,0.692399401 14.2607143,8.33406607 8.73571434,23.6340661 C3.28571434,38.7590661 3.99404767,54.2340661 7.25238101,68.0173994 L0.402381006,76.0673994 C0.122737825,76.3929571 -0.0205416662,76.8138406 0.00238100561,77.2423994 L1.12738101,97.5923994 C1.17610087,98.4768929 1.90821445,99.1687402 2.79404767,99.1673994 L6.79404767,99.1673994 C7.54019813,99.1700512 8.19719305,98.676454 8.40238101,97.9590661 L11.8857143,85.8340661 L12.8607143,85.3423994 C14.002381,88.1507327 15.202381,90.8090661 16.402381,93.2923994 C16.6804359,93.8679606 17.2631744,94.2337909 17.902381,94.2340661 L31.8357143,94.2340661 C32.4656215,94.2416529 33.0459817,93.8934368 33.3357143,93.3340661 C34.5357143,90.8340661 35.727381,88.1923994 36.8690477,85.3840661 L37.852381,85.8757327 L41.3357143,97.9923994 C41.5521967,98.6936064 42.2018581,99.1707015 42.9357143,99.1673994 L46.9440477,99.1673994 C47.8298809,99.1687402 48.5619945,98.4768929 48.6107143,97.5923994 L49.7357143,77.2423994 C49.758637,76.8138406 49.6153575,76.3929571 49.3357143,76.0673994 Z M24.8690477,3.92573273 C28.2727775,7.32903468 31.1918407,11.1846657 33.5440477,15.3840661 L16.1857143,15.3840661 C18.537186,11.1819926 21.4594014,7.32590229 24.8690477,3.92573273 Z M11.802381,24.9507327 C12.5660123,22.8277925 13.4422552,20.7470632 14.427381,18.7173994 L35.302381,18.7173994 C36.2945025,20.743888 37.1709094,22.8250066 37.927381,24.9507327 C44.0940477,42.2423994 41.8357143,60.1007327 37.0440477,75.1257327 L12.6857143,75.1257327 C7.90238101,60.1007327 5.63571434,42.2423994 11.802381,24.9507327 Z M9.73571434,83.1923994 C9.3286106,83.4046976 9.02711737,83.7755342 8.90238101,84.2173994 L5.54404767,95.8340661 L4.36904767,95.8340661 L3.33571434,77.7173994 L8.23571434,71.9673994 C9.22738101,75.5340661 10.3690477,78.9757327 11.5690477,82.2423994 L9.73571434,83.1923994 Z M30.7857143,90.9090661 L18.952381,90.9090661 C17.0199362,86.8516442 15.3009238,82.6959734 13.802381,78.4590661 L35.927381,78.4590661 C34.4279211,82.6944139 32.7117684,86.8498953 30.7857143,90.9090661 Z M45.3607143,95.8340661 L44.1690477,95.8340661 L40.8357143,84.2173994 C40.710978,83.7755342 40.4094847,83.4046976 40.002381,83.1923994 L38.102381,82.2423994 C39.3357143,78.9757327 40.477381,75.5757327 41.4357143,71.9673994 L46.3357143,77.7173994 L45.3607143,95.8340661 Z" id="Shape"></path>
                <path d="M24.8,41.6 C28.5555363,41.6 31.6,38.5555363 31.6,34.8 C31.6,31.0444637 28.5555363,28 24.8,28 C21.0444637,28 18,31.0444637 18,34.8 C18.0045916,38.5536327 21.0463673,41.5954084 24.8,41.6 Z M24.8,31.3416667 C26.2028933,31.3416707 27.4674897,32.1872014 28.0035719,33.4836294 C28.5396541,34.7800573 28.2415302,36.271784 27.2483419,37.2625849 C26.2551535,38.2533858 24.7627136,38.5479186 23.4675797,38.0087178 C22.1724457,37.469517 21.329961,36.2028892 21.3333333,34.8 C21.3333307,33.8813473 21.6988334,33.0004414 22.3492002,32.351638 C22.999567,31.7028347 23.88135,31.339453 24.8,31.3416667 Z" id="Shape"></path>
            </g>
        </g>
    </g>
</svg>