<svg height="512pt" viewBox="-33 0 512 512" width="512pt" xmlns="http://www.w3.org/2000/svg"><path d="m376 512v-174.945312c0-14.113282-9.246094-26.5625-22.757812-30.640626l-71.402344-21.535156h-179.679688l-71.398437 21.519532c-13.519531 4.078124-22.769531 16.535156-22.761719 30.65625v174.945312zm0 0" fill="#91e8ed"/><path d="m242 256 40 26.320312v55.28125l-90 14.398438-38-8-24 24-27.839844-83.121094 41.839844-28.878906zm0 0" fill="#ffea00"/><path d="m240 224v73.503906l-48 54.496094-48-54.496094v-73.503906zm0 0" fill="#ffdecf"/><path d="m120 112v104l24 32h72l48-32v-104c0-39.765625-32.234375-72-72-72s-72 32.234375-72 72zm0 0" fill="#ffdecf"/><g fill="#00c3ff"><path d="m72 152c0 17.671875 14.328125 32 32 32h16v-64h-16c-17.671875 0-32 14.328125-32 32zm0 0"/><path d="m280 120h-16v64h16c17.671875 0 32-14.328125 32-32s-14.328125-32-32-32zm0 0"/><path d="m330 296.40625c-3.875.019531-7.746094.265625-11.589844.730469l-40.007812-33.136719v46.863281c-42.695313 25.871094-59.71875 79.300781-39.867188 125.101563 19.855469 45.804687 70.484375 69.90625 118.554688 56.4375 48.066406-13.46875 78.800781-60.371094 71.964844-109.820313-6.835938-49.449219-49.140626-86.253906-99.0625-86.175781zm0 0"/></g><path d="m438 358-8.582031-33.703125-37 37-31.714844-31.695313 37-37-33.703125-8.601562-42.71875 42.71875 8.933594 33.351562-101.644532 101.648438c-4.214843 4.203125-6.578124 9.90625-6.578124 15.855469s2.363281 11.65625 6.578124 15.859375c4.199219 4.210937 9.90625 6.574218 15.855469 6.574218s11.652344-2.363281 15.855469-6.574218l101.648438-101.648438 33.351562 8.933594zm0 0" fill="#ffea00"/><path d="m264 112c0-39.765625-32.234375-72-72-72s-72 32.234375-72 72v24l32-32 10.824219 7.199219c8.648437 5.738281 18.796875 8.796875 29.175781 8.800781 10.417969-.003906 20.601562-3.085938 29.273438-8.863281l10.726562-7.136719 32 32zm0 0" fill="#50575e"/><path d="m168 144v48h32v-16h-16v-32zm0 0"/><path d="m66 384h16v128h-16zm0 0"/><path d="m446.871094 360.441406-13.175782-51.738281-41.277343 41.28125-20.417969-20.382813 41.289062-41.28125-51.6875-13.191406-14.679687 14.671875c-8.574219-1.433593-17.296875-1.757812-25.953125-.96875l-50.566406-41.847656v18.152344l-22.402344-14.738281v-14.117188l24-16v-28.28125h8c17.253906.050781 32.582031-11 37.988281-27.386719 5.40625-16.382812-.339843-34.386719-14.234375-44.613281h.246094v-8c0-61.855469-50.144531-112-112-112s-112 50.144531-112 112v8h.25c-12.71875 9.347656-18.722656 25.320312-15.3125 40.730469 3.410156 15.410156 15.589844 27.359375 31.0625 30.46875v32.800781h80v-16h-64v-16h16v-52.6875l25.023438-25.03125 5.378906 3.566406c20.476562 13.308594 46.878906 13.285156 67.335937-.054687l5.246094-3.496094 25.015625 25.015625v72.40625l-42.398438 28.28125h-77.601562v11.800781l-37.359375 25.800781-70.191406 21.160157c-16.9375 5.023437-28.527344 20.625-28.449219 38.292969v174.945312h16v-174.945312c-.046875-10.597657 6.902344-19.960938 17.0625-22.984376l64-19.292968 29.480469 88 30.074219-30.082032 27.382812 5.792969v89.511719h16v-89.175781l30.824219-4.9375c-12.722657 29.351562-11.640625 62.851562 2.945312 91.320312l-10.855469 10.855469c-11.882812 11.882812-11.882812 31.144531 0 43.027344 11.878907 11.878906 31.140626 11.878906 43.023438 0l9.503906-9.488282c37.152344 22.03125 83.882813 19.722657 118.683594-5.867187 34.800781-25.585937 50.9375-69.5 40.988281-111.535156zm-142.871094-208.441406c0 13.253906-10.746094 24-24 24h-8v-48h8c13.253906 0 24 10.746094 24 24zm-192 24h-8c-13.253906 0-24-10.746094-24-24s10.746094-24 24-24h8zm0-64h-8c-2.6875-.003906-5.367188.265625-8 .800781v-.800781c0-53.019531 42.980469-96 96-96s96 42.980469 96 96v.800781c-2.632812-.535156-5.3125-.804687-8-.800781h-8c0-44.183594-35.816406-80-80-80s-80 35.816406-80 80zm121.015625-18.296875-16.160156 10.777344c-15.078125 9.8125-34.523438 9.8125-49.597657 0l-16.28125-10.800781-22.976562 23.007812v-4.6875c0-35.347656 28.652344-64 64-64s64 28.652344 64 64v4.6875zm49.527344 224 3.867187-2.328125v-34.398438l29.527344 24.457032 3.390625-.394532c3.542969-.425781 7.105469-.644531 10.671875-.664062.71875 0 1.449219.089844 2.167969.105469l-19.808594 19.808593 8.9375 33.351563-75.472656 75.464844c-18.699219-42.230469-2.941407-91.773438 36.71875-115.433594zm-131.132813 17.601563-17.929687 17.917968-21.824219-65.152344 24.34375-16.832031v29.28125l34.074219 38.679688zm40.589844 4.589843-40-45.414062v-38.480469h66.402344l13.597656-9.054688v47.535157zm20.710938.691407 35.289062-40.066407v-30.984375l22.402344 14.761719v22.167969c-11.832032 7.832031-22.003906 17.917968-29.9375 29.679687zm117.289062 147.828124c-14.917969.007813-29.609375-3.636718-42.800781-10.605468l77.105469-77.105469 33.34375 8.9375 23.609374-23.601563c.445313 3.449219.6875 6.921876.726563 10.402344-.070313 50.769532-41.214844 91.910156-91.984375 91.972656zm62.886719-96.613281-33.351563-8.945312-104.910156 104.921875c-5.632812 5.632812-14.765625 5.632812-20.402344 0-5.632812-5.632813-5.632812-14.769532 0-20.402344l104.921875-104.910156-8.945312-33.351563 36.242187-36.242187 15.664063 4-32.714844 32.730468 43.027344 43.023438 32.71875-32.722656 4 15.671875zm0 0"/></svg>