<svg xmlns="http://www.w3.org/2000/svg" xmlns:xlink="http://www.w3.org/1999/xlink" width="130" height="130" viewBox="0 0 130 130"><defs><style>.a{fill:none;}.b{fill:#336278;}.c{fill:#f9f9f9;}.d{clip-path:url(#a);}.e{fill:#b2b2b2;}.f{fill:#1d4354;}.g{fill:#6fda44;}.h{clip-path:url(#b);}.i{fill:#e0e0e0;}.j{fill:#33637a;}.k{fill:#fff;}.l{fill:#c4c4c4;}</style><clipPath id="a"><path class="a" d="M48,48A10.84,10.84,0,1,1,35.4,39.26,10.82,10.82,0,0,1,48,48"/></clipPath><clipPath id="b"><path class="a" d="M103.12,51.81a10.84,10.84,0,1,1-8.78-12.55,10.82,10.82,0,0,1,8.78,12.55"/></clipPath></defs><title>HIW-package</title><rect class="a" width="130" height="130"/><path class="b" d="M62,85,26,91.33a.67.67,0,0,1-.78-.55L15.58,36.07a.68.68,0,0,1,.55-.79l36-6.35a.68.68,0,0,1,.79.55l9.64,54.71A.68.68,0,0,1,62,85"/><path class="c" d="M48,48a11.21,11.21,0,0,1,0,3.79c0,.06-.17,0-.18.06A10.85,10.85,0,0,1,35.5,60.48c-.07,0,0,.12-.06.11A10.83,10.83,0,1,1,48,48"/><g class="d"><path class="e" d="M40.42,57.39a8.11,8.11,0,0,0,5-4.17l-4-2.65a.5.5,0,0,1-.19-.66s.66-.64.43-1.3a1,1,0,0,0-1.17-.78c-.18,0-.43-.19-.56-.28a5.46,5.46,0,0,0-.59-.39l-.1,0a19,19,0,0,1-1.95-.73,2.78,2.78,0,0,0-1.77-.25c-1.16.27-2.28-.47-2.28,2.09,0,.83-.1,1.58-.1,1.58S33,50.9,33,51.58s.82.41.82.41c.63-.11.77.79,1,1.28s.22,1.47,2.43.93Z"/><path class="f" d="M30.81,45.25a2.4,2.4,0,0,0,.09.5,1.89,1.89,0,0,0,1.2,1.33c2,.64,4.07-2.15,5.67.23a5.74,5.74,0,0,1,1,1.86l.88-.18a1,1,0,0,1,.85-1.06c.51-.08.93.13,1.21.84a2.47,2.47,0,0,0,.53-2A2,2,0,0,0,40.54,45c-.59-.18-.51-.45-.5-.85A2,2,0,0,0,38.44,42a3.89,3.89,0,0,0-2.32.41c-1.21.52-2.51.38-3.73.81a2.08,2.08,0,0,0-1.58,2"/><path class="f" d="M66.05,72.35c-.44-1.59-2.16-7.37-4.68-11.21l3-.53C59.21,49.8,47.26,51.35,43.92,52a7.67,7.67,0,0,1-2.1,2.75,7.24,7.24,0,0,1-.65.48l-.13.08-.16.1a7.55,7.55,0,0,1-1.89.78h0a10.24,10.24,0,0,0-4.32,9.54l6.07-1.07,3.91,11.43Z"/><path class="e" d="M39.48,73.65l-6,1.06-.68-3.84,3-.54a.52.52,0,0,0,.43-.6l-.72-4.09,5.18-.92,1.46,4.37a3.51,3.51,0,0,1-2.72,4.56"/><path class="e" d="M39.47,73.63s0,0,0,0Z"/><path class="e" d="M63.49,60.79l-5.91,1,.53,3a.68.68,0,0,1-.51.77L46,68.69a8.15,8.15,0,0,0-5,1.74S39,72.38,39.28,73.69l4-.74,3-1.1c3.82-.46,8.25-.3,14.31-1.39S63.49,60.79,63.49,60.79Z"/></g><rect class="g" x="30.28" y="74.08" width="23.81" height="7.21" transform="translate(-12.85 8.51) rotate(-10)"/><path class="b" d="M103.73,91.33,67.7,85a.68.68,0,0,1-.55-.79L76.8,29.48a.67.67,0,0,1,.78-.55l36,6.35a.67.67,0,0,1,.55.78l-9.65,54.72a.67.67,0,0,1-.78.55"/><path class="c" d="M103.12,51.81a10.83,10.83,0,0,1-9.6,8.89s0-.11-.08-.11l-.25,0a10.94,10.94,0,0,1-2.54-.15,10.8,10.8,0,0,1-6.34-3.6A10.6,10.6,0,0,1,81.78,48a10.84,10.84,0,0,1,21.34,3.77"/><g class="h"><path class="i" d="M97.55,50.11a17.87,17.87,0,0,1,.11-1.82l0,0a4.08,4.08,0,0,0-8-1.44,1,1,0,0,1-.34,0,1.08,1.08,0,0,0-.4,0,1.26,1.26,0,0,0-.68.36,1.3,1.3,0,0,0-.32.64,1.23,1.23,0,0,0,0,.54,2.54,2.54,0,0,0,.26.49,1.64,1.64,0,0,1,.16.29c.06.21-.16.56-.3.7l-5.13,5.27A13,13,0,0,0,88.75,60l3.55-5.49c2.45.93,2.55-.2,2.89-.72s.63-1.54,1.33-1.32c0,0,.93.42,1-.36s0-2,0-2"/><path class="f" d="M90,48.3l0-.2a1.08,1.08,0,0,0-.87-1.25,1.06,1.06,0,0,0-.91.29.74.74,0,0,0-.13.12l0,0,2-5.25a.92.92,0,0,1,1.07-.54l6.49,1.74a.9.9,0,0,1,.63,1.11l-.68,2.38-3.16-.9a1,1,0,0,0-1,.3l-1.85,2.08a1,1,0,0,1-1,.28Z"/><path class="j" d="M89.06,44.73l-1,2.56s0,0,0,0a.74.74,0,0,1,.13-.12,1,1,0,0,1,1.05-.25A1.11,1.11,0,0,1,90,48.15l0,.15,1.24.38,2.26-2.55Z"/><path class="f" d="M63.55,70.75,79.83,53.94a5.7,5.7,0,0,1,8.2-.19c2.58,2.29,11,14.87,11,14.87l-7.08,5-3.61-5.14-6.06,5.91Z"/></g><rect class="g" x="83.95" y="65.78" width="7.21" height="23.81" transform="translate(-4.15 150.42) rotate(-80)"/><path class="f" d="M85.83,82.73H43.91a.77.77,0,0,1-.77-.78V18.3a.77.77,0,0,1,.77-.78H85.83a.78.78,0,0,1,.78.78V82a.78.78,0,0,1-.78.78"/><path class="c" d="M77.28,38.25a12.32,12.32,0,0,1-2.5,7.47s0,0-.08,0A12.44,12.44,0,0,1,55,45.65s0,.06-.07,0a12.41,12.41,0,1,1,22.35-7.43"/><path class="g" d="M67.08,45.15c-1.91-.48-3.17-2.25-4.49-3.81-1.7-2-3.23-4.89-2.85-7.59a4.58,4.58,0,0,1,.19-.85,5.5,5.5,0,0,1,5.43-3.68,6,6,0,0,1,4.55,3.19c1.63,3,1,5.84,2.53,8.26,1.69,2.59-.1,5.79-5.36,4.48"/><path class="e" d="M57,45.12c1-.28,2.36-.62,3.71-1a1.31,1.31,0,0,0,1-1.08L62,42a1.53,1.53,0,0,0-.44-1.47,6,6,0,0,1-1.73-4.3c0-3.08,2.14-5.57,4.77-5.57s4.77,2.49,4.77,5.57a6,6,0,0,1-1.87,4.43A1.5,1.5,0,0,0,67,42l.14.84a1.69,1.69,0,0,0,1.21,1.32l4.17,1Z"/><path class="b" d="M64.72,44.94a9.92,9.92,0,0,0,3.74-.72l6.32,1.51a12,12,0,0,1-10,4.93,12.29,12.29,0,0,1-9.88-5s2.84-.79,5.82-1.53l.16,0a7.55,7.55,0,0,0,3.82.83"/><path class="g" d="M59.87,35.27s.55-2.55,1.71-3.19,2.57-.48,5.33,3.52a5.9,5.9,0,0,0,2.56,2.08s1-7-4.42-7.48c-5.21-.43-5.18,5.07-5.18,5.07"/><rect class="g" x="51.23" y="66.41" width="27.28" height="8.26"/><path class="k" d="M53.73,57.63l.5-1.43s0,0,0,0l.49,1.41,0,0,1.42,0s0,0,0,0l-1.12,1s0,0,0,0l.4,1.41s0,0,0,0l-1.19-.78s0,0,0,0l-1.18.78s0,0,0,0l.38-1.42s0,0,0,0l-1.12-.91s0,0,0,0l1.42-.07h0"/><path class="k" d="M59.08,57.63l.5-1.43a0,0,0,0,1,0,0l.49,1.41a0,0,0,0,0,0,0l1.42,0s0,0,0,0l-1.12,1s0,0,0,0l.4,1.41s0,0,0,0l-1.19-.78s0,0,0,0l-1.18.78s0,0,0,0l.39-1.42s0,0,0,0l-1.13-.91s0,0,0,0l1.42-.07h0"/><path class="k" d="M64.43,57.63l.5-1.43a0,0,0,0,1,0,0l.49,1.41v0l1.43,0s0,0,0,0l-1.11,1s0,0,0,0l.4,1.41s0,0,0,0L65,59.34s0,0,0,0l-1.18.78s0,0,0,0l.39-1.42a0,0,0,0,0,0,0L63,57.74s0,0,0,0l1.41-.07h0"/><path class="k" d="M69.78,57.63l.5-1.43a0,0,0,0,1,0,0l.49,1.41a0,0,0,0,0,0,0l1.42,0s0,0,0,0l-1.11,1s0,0,0,0l.4,1.41s0,0,0,0l-1.19-.78s0,0,0,0l-1.18.78s0,0,0,0l.39-1.42a0,0,0,0,0,0,0l-1.12-.91s0,0,0,0l1.42-.07h0"/><path class="k" d="M75.13,57.63l.5-1.43s0,0,0,0l.48,1.41s0,0,0,0l1.43,0s0,0,0,0l-1.11,1s0,0,0,0l.39,1.41s0,0,0,0l-1.19-.78s0,0,0,0l-1.18.78s0,0,0,0l.39-1.42a0,0,0,0,0,0,0l-1.12-.91a0,0,0,0,1,0,0l1.42-.07h0"/><path class="i" d="M51.71,72.19H21.38a.62.62,0,0,0-.62.62v39.05a.62.62,0,0,0,.62.62H52.32V72.19Z"/><path class="l" d="M108.62,72.19H52.32v40.29h56.3a.62.62,0,0,0,.62-.62v-39A.62.62,0,0,0,108.62,72.19Z"/><path class="c" d="M36.28,89.66H5.33c-.34,0-.43-.2-.2-.45l15.68-17H52.32Z"/><path class="c" d="M124.87,89.22c.23.25.14.45-.2.45H68.41L52.32,72.2h56.87Z"/></svg>