<svg id="Capa_1" enable-background="new 0 0 512 512" height="512" viewBox="0 0 512 512" width="512" xmlns="http://www.w3.org/2000/svg"><g><path d="m221.128 216c0-11.046 8.954-20 20-20h20v-20c0-11.046 8.954-20 20-20s20 8.954 20 20v20h20c11.046 0 20 8.954 20 20s-8.954 20-20 20h-20v20c0 11.046-8.954 20-20 20s-20-8.954-20-20v-20h-20c-11.046 0-20-8.954-20-20zm290.236-111.033-59.487 232c-2.268 8.847-10.24 15.033-19.373 15.033h-332.513c-11.046 0-20-8.954-20-20 0-8.367 0-286.042 0-292h-59.991c-11.046 0-20-8.954-20-20s8.954-20 20-20h79.991c11.046 0 20 8.954 20 20v60h372c13.056 0 22.614 12.33 19.373 24.967zm-45.148 15.033h-346.225v192h296.994zm-266.225 332c0 33.084-26.916 60-60 60s-60-26.916-60-60 26.916-60 60-60 60 26.916 60 60zm-40 0c0-11.028-8.972-20-20-20s-20 8.972-20 20 8.972 20 20 20 20-8.972 20-20zm253.091 0c0 33.084-26.916 60-60 60s-60-26.916-60-60 26.916-60 60-60 60 26.916 60 60zm-40 0c0-11.028-8.972-20-20-20s-20 8.972-20 20 8.972 20 20 20 20-8.972 20-20z"/></g></svg>