<?xml version="1.0" encoding="iso-8859-1"?>
<!-- Generator: Adobe Illustrator 19.0.0, SVG Export Plug-In . SVG Version: 6.00 Build 0)  -->
<svg version="1.1" id="Capa_1" xmlns="http://www.w3.org/2000/svg" xmlns:xlink="http://www.w3.org/1999/xlink" x="0px" y="0px"
	 viewBox="0 0 511.999 511.999" style="enable-background:new 0 0 511.999 511.999;" xml:space="preserve">
<path style="fill:#EFEFEF;" d="M283.83,0H104.55C78.102,0,56.661,21.441,56.661,47.889c0,34.009,0,397.617,0,416.221
	c0,26.449,21.441,47.889,47.889,47.889h179.28c26.449,0,47.889-21.441,47.889-47.889c0-96.566,0-319.673,0-416.221
	C331.719,21.441,310.278,0,283.83,0z"/>
<path style="fill:#DDDDDD;" d="M82.415,464.111c0-20.993,0-382.767,0-416.221c0-26.449,21.441-47.89,47.89-47.89H104.55
	C78.102,0,56.661,21.441,56.661,47.889c0,34.009,0,397.617,0,416.221c0,26.449,21.441,47.889,47.889,47.889h25.755
	C103.856,512,82.415,490.559,82.415,464.111z"/>
<path style="fill:#3997EE;" d="M304.934,463.859c0,11.795-9.561,21.356-21.356,21.356H103.772c-11.795,0-21.357-9.562-21.357-21.357
	V48.141c0-11.795,9.562-21.357,21.357-21.357h22.126c4.431,0,8.023,3.477,8.026,7.767v4.595c0,6.799,5.563,12.362,12.362,12.362
	h0.053h94.669h0.053c6.8,0,12.363-5.563,12.363-12.363v-4.594c0.003-4.29,3.595-7.767,8.026-7.767h22.127
	c11.795,0,21.356,9.562,21.356,21.356C304.934,72.492,304.934,447.71,304.934,463.859z"/>
<path style="fill:#1E88D8;" d="M110.23,463.859V48.141c0-10.61,7.745-19.388,17.885-21.05c-0.705-0.196-1.446-0.307-2.216-0.307
	h-22.126c-11.795,0-21.357,9.562-21.357,21.357v415.717c0,11.795,9.562,21.357,21.357,21.357h27.815
	C119.792,485.215,110.23,475.654,110.23,463.859z"/>
<path style="fill:#64C4FF;" d="M227.578,360.563h-68.431c-9.388,0-16.998,7.61-16.998,16.998l0,0c0,9.388,7.61,16.998,16.998,16.998
	h68.431c9.388,0,16.998-7.61,16.998-16.998l0,0C244.576,368.174,236.966,360.563,227.578,360.563z"/>
<path style="fill:#48AEF9;" d="M193.363,377.561c0-9.388,7.61-16.998,16.998-16.998h-51.213c-9.388,0-16.998,7.61-16.998,16.998
	s7.61,16.998,16.998,16.998h51.213C200.973,394.559,193.363,386.949,193.363,377.561z"/>
<g>
	<path style="fill:#DDDDDD;" d="M222.52,33.481h-31.936c-4.267,0-7.726-3.459-7.726-7.726s3.459-7.726,7.726-7.726h31.936
		c4.267,0,7.726,3.459,7.726,7.726S226.787,33.481,222.52,33.481z"/>
	<path style="fill:#DDDDDD;" d="M163.439,33.945c-4.336,0-7.726-3.578-7.726-7.726c0-4.835,4.428-8.527,9.241-7.583
		c3.744,0.778,6.212,3.998,6.212,7.583C171.165,30.393,167.809,33.945,163.439,33.945z"/>
</g>
<path style="fill:#48AEF9;" d="M197.796,456.885h-11.332c-4.267,0-7.726-3.459-7.726-7.726c0-4.268,3.459-7.726,7.726-7.726h11.332
	c4.267,0,7.726,3.459,7.726,7.726C205.522,453.427,202.063,456.885,197.796,456.885z"/>
<g>
	<path style="fill:#EFEFEF;" d="M166.89,177.706h-22.664c-4.267,0-7.726-3.459-7.726-7.726c0-4.268,3.459-7.726,7.726-7.726h22.664
		c4.267,0,7.726,3.459,7.726,7.726C174.617,174.248,171.157,177.706,166.89,177.706z"/>
	<path style="fill:#EFEFEF;" d="M175.132,213.763h-22.664c-4.267,0-7.726-3.459-7.726-7.726c0-4.268,3.459-7.726,7.726-7.726h22.664
		c4.267,0,7.726,3.459,7.726,7.726S179.399,213.763,175.132,213.763z"/>
	<path style="fill:#EFEFEF;" d="M190.584,285.875H167.92c-4.267,0-7.726-3.459-7.726-7.726s3.459-7.726,7.726-7.726h22.664
		c4.267,0,7.726,3.459,7.726,7.726S194.851,285.875,190.584,285.875z"/>
	<path style="fill:#EFEFEF;" d="M182.343,249.819h-21.634c-4.267,0-7.726-3.459-7.726-7.726c0-4.268,3.459-7.726,7.726-7.726h21.634
		c4.267,0,7.726,3.459,7.726,7.726S186.61,249.819,182.343,249.819z"/>
</g>
<path style="fill:#FAC149;" d="M395.309,169.98H215.653l22.86,108.169h134.253c2.746,0,5.126-1.901,5.732-4.579l21.98-97.119
	C401.229,173.135,398.709,169.98,395.309,169.98L395.309,169.98z"/>
<polygon style="fill:#F8A748;" points="215.653,169.98 238.514,278.149 274.223,278.149 251.363,169.98 "/>
<path style="fill:#DDDDDD;" d="M377.047,304.419H251.28c-7.275-36.797,0.333-0.163-37.699-180.332
	c-0.755-3.573-3.908-6.131-7.56-6.131h-32.95c-4.267,0-7.726,3.459-7.726,7.726c0,4.268,3.459,7.726,7.726,7.726h26.685
	l37.595,180.234l0,0c0.715,3.62,3.89,6.228,7.58,6.228h132.116c4.267,0,7.726-3.459,7.726-7.726S381.314,304.419,377.047,304.419z"
	/>
<circle style="fill:#32CC65;" cx="405.375" cy="173.59" r="49.964"/>
<path style="fill:#23B658;" d="M386.196,184.66c-11.383-19.716-7.79-43.956,7.232-59.586c-4.464,1.102-8.851,2.828-13.032,5.242
	c-23.897,13.797-32.085,44.354-18.288,68.252c13.797,23.897,44.355,32.085,68.252,18.288c4.181-2.414,7.87-5.35,11.056-8.665
	C420.368,213.384,397.579,204.376,386.196,184.66z"/>
<circle style="fill:#647892;" cx="267.845" cy="325.54" r="13.392"/>
<path style="fill:#4D6682;" d="M267.848,325.537c-2.477-4.29-2.299-9.376,0.006-13.382c-2.279-0.003-4.587,0.563-6.702,1.784
	c-6.405,3.698-8.6,11.889-4.902,18.294s11.889,8.6,18.294,4.902c2.115-1.221,3.76-2.938,4.896-4.912
	C274.818,332.216,270.325,329.828,267.848,325.537z"/>
<circle style="fill:#647892;" cx="366.745" cy="325.54" r="13.392"/>
<path style="fill:#4D6682;" d="M366.745,325.537c-2.477-4.29-2.299-9.376,0.006-13.382c-2.278-0.003-4.587,0.563-6.702,1.784
	c-6.405,3.698-8.6,11.889-4.902,18.294s11.889,8.6,18.294,4.902c2.115-1.221,3.76-2.938,4.896-4.912
	C373.716,332.216,369.222,329.828,366.745,325.537z"/>
<path style="fill:#EFEFEF;" d="M422.375,166.374h-9.787v-9.787c0-4.268-3.459-7.726-7.726-7.726s-7.726,3.459-7.726,7.726v9.787
	h-8.757c-4.267,0-7.726,3.459-7.726,7.726s3.459,7.726,7.726,7.726h8.757v8.757c0,4.268,3.459,7.726,7.726,7.726
	s7.726-3.459,7.726-7.726v-8.757h9.787c4.267,0,7.726-3.459,7.726-7.726S426.642,166.374,422.375,166.374z"/>
<g>
</g>
<g>
</g>
<g>
</g>
<g>
</g>
<g>
</g>
<g>
</g>
<g>
</g>
<g>
</g>
<g>
</g>
<g>
</g>
<g>
</g>
<g>
</g>
<g>
</g>
<g>
</g>
<g>
</g>
</svg>
