<svg height="480pt" viewBox="0 0 480.07436 480" width="480pt" xmlns="http://www.w3.org/2000/svg"><path d="m416 119.925781h-352c-17.671875 0-32 14.328125-32 32v304h416v-304c0-17.671875-14.328125-32-32-32zm0 0" fill="#4398d1"/><path d="m400 151.925781h-328c-4.417969 0-8 3.582031-8 8v280h352v-272c0-8.835937-7.164062-16-16-16zm0 0" fill="#87ced9"/><path d="m416 207.925781-232 232h232zm0 0" fill="#71c4d1"/><path d="m352 7.925781 24.847656 27.273438 35.152344-11.195313 7.878906 36.042969 36.042969 7.878906-11.195313 35.152344 27.273438 24.847656-27.273438 24.847657 11.195313 35.152343-36.042969 7.878907-7.878906 36.042968-35.152344-11.195312-24.847656 27.273437-24.847656-27.273437-35.152344 11.195312-7.878906-36.042968-36.042969-7.878907 11.195313-35.152343-27.273438-24.847657 27.273438-24.847656-11.195313-35.152344 36.042969-7.878906 7.878906-36.042969 35.152344 11.195313zm0 0" fill="#fdb62f"/><g fill="#fd6d2f"><path d="m306.34375 162.269531 79.996094-80 11.316406 11.3125-80 80zm0 0"/><path d="m312 127.925781c-13.253906 0-24-10.746093-24-24 0-13.253906 10.746094-24 24-24s24 10.746094 24 24c0 13.253907-10.746094 24-24 24zm0-32c-4.417969 0-8 3.582031-8 8s3.582031 8 8 8 8-3.582031 8-8-3.582031-8-8-8zm0 0"/><path d="m392 175.925781c-13.253906 0-24-10.746093-24-24 0-13.253906 10.746094-24 24-24s24 10.746094 24 24c0 13.253907-10.746094 24-24 24zm0-32c-4.417969 0-8 3.582031-8 8s3.582031 8 8 8 8-3.582031 8-8-3.582031-8-8-8zm0 0"/></g><path d="m148.601562 342.316406-28.738281 11.65625 18.753907 37.953125h31.472656zm0 0" fill="#e0e3e6"/><path d="m248 343.925781-99.398438-1.609375-21.480468-42.519531 78.765625-77.949219zm0 0" fill="#e0e3e6"/><path d="m97.191406 338.5c2.164063 6.339844 6.960938 11.433594 13.15625 13.976562 6.199219 2.539063 13.191406 2.277344 19.179688-.71875l19.074218-9.441406-21.480468-42.519531-19.875 11.800781c-9.285156 5.464844-13.480469 16.6875-10.054688 26.902344zm0 0" fill="#e3584b"/><path d="m249.28125 273.964844 26.457031-9.195313 5.246094 15.105469-26.453125 9.195312zm0 0" fill="#5eb3d1"/><path d="m228.492188 220.78125 17.644531-18.390625 11.546875 11.078125-17.648438 18.390625zm0 0" fill="#5eb3d1"/><path d="m272 327.925781h24v16h-24zm0 0" fill="#5eb3d1"/><path d="m320 279.925781h152v96h-152zm0 0" fill="#e3584b"/><path d="m344 303.925781h32v16h-32zm0 0" fill="#c9433c"/><path d="m392 303.925781h56v16h-56zm0 0" fill="#c9433c"/><path d="m344 335.925781h104v16h-104zm0 0" fill="#c9433c"/><path d="m8 183.925781h120v64h-120zm0 0" fill="#fd6d2f"/><path d="m32 207.925781h16v16h-16zm0 0" fill="#e3584b"/><path d="m64 207.925781h40v16h-40zm0 0" fill="#e3584b"/><path d="m448 471.925781h-416c-13.253906 0-24-10.746093-24-24v-24h183.054688c5.484374 0 10.496093 3.097657 12.945312 8 2.449219 4.902344 7.460938 8 12.945312 8h46.109376c5.484374 0 10.496093-3.097656 12.945312-8 2.449219-4.902343 7.460938-8 12.945312-8h183.054688v24c0 13.253907-10.746094 24-24 24zm0 0" fill="#d6d9db"/><path d="m128 199.925781v48h-64v16h80v-64zm0 0" fill="#71c4d1"/><path d="m32 247.925781h32v16h-32zm0 0" fill="#3e8cc7"/><path d="m416 375.925781h32v16h-32zm0 0" fill="#3e8cc7"/><path d="m472 415.925781h-16v-16h-16v16h-16v-16h-16v16h-119.054688c-8.539062-.042969-16.355468 4.777344-20.144531 12.425781-1.082031 2.199219-3.332031 3.589844-5.785156 3.574219h-46.070313c-2.457031.015625-4.703124-1.375-5.785156-3.574219-3.785156-7.636718-11.582031-12.457031-20.105468-12.425781h-119.054688v-144h-16v144h-16v-144h-16v144h-16c-4.417969 0-8 3.582031-8 8v24c0 17.671875 14.328125 32 32 32h416c17.671875 0 32-14.328125 32-32v-24c0-4.417969-3.582031-8-8-8zm-8 32c0 8.835938-7.164062 16-16 16h-416c-8.835938 0-16-7.164062-16-16v-16h175.054688c2.457031-.015625 4.703124 1.375 5.785156 3.574219 3.785156 7.636719 11.582031 12.457031 20.105468 12.425781h46.109376c8.539062.046875 16.355468-4.777343 20.144531-12.425781 1.078125-2.1875 3.304687-3.574219 5.746093-3.574219h175.054688zm0 0"/><path d="m208 127.925781v-16h-144c-22.082031.027344-39.972656 17.917969-40 40v8h16v-8c0-13.253906 10.746094-24 24-24zm0 0"/><path d="m56 159.925781h168v-16h-152c-8.835938 0-16 7.164063-16 16zm0 0"/><path d="m453.902344 100.621094 9.601562-30.261719c.683594-2.144531.433594-4.480469-.6875-6.429687-1.125-1.949219-3.019531-3.335938-5.214844-3.820313l-31.035156-6.785156-6.75-31c-.476562-2.195313-1.851562-4.09375-3.796875-5.222657-1.945312-1.132812-4.273437-1.394531-6.417969-.71875l-30.265624 9.597657-21.425782-23.445313c-1.550781-1.597656-3.683594-2.4960935-5.910156-2.4960935s-4.359375.8984375-5.910156 2.4960935l-21.394532 23.488282-30.296874-9.640626c-2.144532-.6875-4.476563-.433593-6.429688.691407-1.949219 1.125-3.335938 3.019531-3.816406 5.21875l-6.785156 31.03125-30.96875 6.785156c-2.199219.480469-4.09375 1.867187-5.21875 3.816406-1.125 1.953125-1.375 4.285157-.691407 6.433594l9.601563 30.261719-23.488282 21.394531c-1.664062 1.515625-2.613281 3.660156-2.613281 5.910156s.949219 4.394531 2.613281 5.910157l23.488282 21.394531-9.601563 30.261719c-.683593 2.148437-.433593 4.480468.691407 6.433593 1.125 1.949219 3.019531 3.335938 5.21875 3.816407l31.035156 6.785156 6.78125 31.03125c.480468 2.199218 1.867187 4.09375 3.820312 5.21875 1.949219 1.125 4.285156 1.378906 6.429688.691406l30.261718-9.640625 21.394532 23.488281c1.515625 1.664063 3.660156 2.613282 5.910156 2.613282s4.398438-.949219 5.914062-2.613282l21.390626-23.488281 30.265624 9.640625c2.144532.6875 4.476563.433594 6.429688-.691406 1.949219-1.125 3.335938-3.019532 3.816406-5.21875l6.785156-31.03125 31.03125-6.785156c2.199219-.480469 4.09375-1.867188 5.21875-3.816407 1.125-1.953125 1.378907-4.285156.691407-6.433593l-9.597657-30.261719 23.488282-21.394531c1.660156-1.515626 2.609375-3.660157 2.609375-5.910157s-.949219-4.394531-2.609375-5.910156zm-14.566406 46.234375c-2.308594 2.105469-3.183594 5.363281-2.230469 8.34375l8.496093 26.789062-27.464843 6.007813c-3.046875.671875-5.425781 3.050781-6.097657 6.097656l-5.976562 27.433594-26.789062-8.53125c-2.980469-.9375-6.234376-.066406-8.34375 2.234375l-18.929688 20.816406-18.929688-20.800781c-1.515624-1.664063-3.660156-2.609375-5.910156-2.609375-.816406.003906-1.625.128906-2.398437.378906l-26.824219 8.511719-6.007812-27.464844c-.671876-3.046875-3.050782-5.425781-6.097657-6.097656l-27.433593-5.976563 8.53125-26.789062c.949218-2.980469.078124-6.238281-2.234376-8.34375l-20.816406-18.929688 20.800782-18.929687c2.3125-2.105469 3.183593-5.363282 2.230468-8.34375l-8.511718-26.789063 27.464843-6.007812c3.046875-.671875 5.425781-3.050781 6.097657-6.097657l5.976562-27.433593 26.789062 8.53125c2.980469.949219 6.238282.078125 8.34375-2.234375l18.929688-20.816406 18.929688 20.800781c2.105468 2.3125 5.363281 3.183593 8.34375 2.230469l26.789062-8.511719 6.007812 27.464843c.671876 3.046876 3.050782 5.425782 6.097657 6.097657l27.464843 6.007812-8.527343 26.792969c-.953125 2.976562-.078125 6.234375 2.230469 8.34375l20.785156 18.894531zm0 0"/><path d="m306.34375 162.269531 79.996094-80 11.316406 11.3125-80 80zm0 0"/><path d="m336 103.925781c0-13.253906-10.746094-24-24-24s-24 10.746094-24 24c0 13.253907 10.746094 24 24 24s24-10.746093 24-24zm-32 0c0-4.417969 3.582031-8 8-8s8 3.582031 8 8-3.582031 8-8 8-8-3.582031-8-8zm0 0"/><path d="m392 127.925781c-13.253906 0-24 10.746094-24 24 0 13.253907 10.746094 24 24 24s24-10.746093 24-24c0-13.253906-10.746094-24-24-24zm0 32c-4.417969 0-8-3.582031-8-8s3.582031-8 8-8 8 3.582031 8 8-3.582031 8-8 8zm0 0"/><path d="m207.710938 214.0625c-2.675782-.640625-5.496094.152344-7.445313 2.09375l-78.082031 77.273438-18.984375 11.296874c-12.601563 7.328126-18.289063 22.523438-13.597657 36.328126 3.671876 11.191406 13.484376 19.25 25.175782 20.6875l16.664062 33.71875c1.351563 2.738281 4.144532 4.46875 7.199219 4.457031h31.472656c2.699219.003906 5.21875-1.355469 6.699219-3.613281 1.480469-2.257813 1.722656-5.113282.644531-7.585938l-16.5625-38.234375 86.96875 1.441406h.136719c2.585938 0 5.011719-1.25 6.511719-3.355469 1.5-2.105468 1.890625-4.808593 1.046875-7.253906l-42.101563-122.078125c-.898437-2.597656-3.066406-4.550781-5.746093-5.175781zm-102.910157 121.863281c-2.25-6.648437.496094-13.957031 6.566407-17.480469l12.496093-7.414062 13.992188 27.671875-11.847657 5.863281c-3.972656 1.972656-8.609374 2.121094-12.703124.414063-4.023438-1.628907-7.132813-4.9375-8.503907-9.054688zm38.816407 48-12.097657-24.433593c.503907-.222657 1.046875-.308594 1.550781-.558594l11.539063-5.710938 13.292969 30.703125zm9.984374-49.527343-16.671874-33.007813 65.597656-64.914063 34.234375 99.265626zm0 0"/><path d="m249.28125 273.964844 26.457031-9.195313 5.246094 15.105469-26.453125 9.195312zm0 0"/><path d="m228.492188 220.78125 17.644531-18.390625 11.546875 11.078125-17.648438 18.390625zm0 0"/><path d="m272 327.925781h24v16h-24zm0 0"/><path d="m472 271.925781h-16v-56h-16v56h-16v-16h-16v16h-88c-4.417969 0-8 3.582031-8 8v96c0 4.417969 3.582031 8 8 8h152c4.417969 0 8-3.582031 8-8v-96c0-4.417969-3.582031-8-8-8zm-8 96h-136v-80h136zm0 0"/><path d="m344 303.925781h32v16h-32zm0 0"/><path d="m392 303.925781h56v16h-56zm0 0"/><path d="m344 335.925781h104v16h-104zm0 0"/><path d="m8 255.925781h120c4.417969 0 8-3.582031 8-8v-64c0-4.417969-3.582031-8-8-8h-120c-4.417969 0-8 3.582031-8 8v64c0 4.417969 3.582031 8 8 8zm8-64h104v48h-104zm0 0"/><path d="m32 207.925781h16v16h-16zm0 0"/><path d="m64 207.925781h40v16h-40zm0 0"/></svg>