<?xml version="1.0" encoding="iso-8859-1"?>
<!-- Generator: Adobe Illustrator 19.0.0, SVG Export Plug-In . SVG Version: 6.00 Build 0)  -->
<svg version="1.1" id="Capa_1" xmlns="http://www.w3.org/2000/svg" xmlns:xlink="http://www.w3.org/1999/xlink" x="0px" y="0px"
	 viewBox="0 0 512 512" style="enable-background:new 0 0 512 512;" xml:space="preserve">
<path style="fill:#48AEF9;" d="M477.223,125.434L143.174,96.327c-4.268-0.363-7.993,2.788-8.357,7.039s2.787,7.992,7.038,8.357
	l53.097,4.626v197.836c0,4.267,3.459,7.726,7.726,7.726s7.726-3.458,7.726-7.726v-196.49l30.903,2.693v191.737
	c0,4.267,3.459,7.726,7.726,7.726s7.726-3.459,7.726-7.726V121.734l31.934,2.782v187.608c0,4.267,3.459,7.726,7.726,7.726
	s7.726-3.459,7.726-7.726V125.863l31.934,2.782v183.479c0,4.267,3.459,7.726,7.726,7.726s7.726-3.459,7.726-7.726V129.992
	l30.903,2.693v179.44c0,4.267,3.459,7.726,7.726,7.726s7.726-3.459,7.726-7.726V134.031l31.934,2.783v175.311
	c0,4.267,3.459,7.726,7.726,7.726s7.726-3.459,7.726-7.726V138.16l30.633,2.669c0.741,0.063,1.3,0.672,1.3,1.416v172.077
	c0,4.267,3.459,7.726,7.726,7.726s7.726-3.458,7.726-7.726V142.245C492.656,133.415,486.021,126.187,477.223,125.434z"/>
<g>
	<path style="fill:#3997EE;" d="M241.308,264.886v47.239c0,4.267,3.459,7.726,7.726,7.726c1.723,0,3.309-0.571,4.595-1.525
		L241.308,264.886z"/>
	<path style="fill:#3997EE;" d="M134.817,103.366c-0.364,4.251,2.787,7.992,7.038,8.357l53.097,4.626v197.836
		c0,4.267,3.459,7.726,7.726,7.726s7.726-3.458,7.726-7.726V130.84l-6.742-29.243l-60.488-5.271
		C138.906,95.964,135.181,99.114,134.817,103.366z"/>
	<path style="fill:#3997EE;" d="M492.141,218.9H169.715c-4.267,0-7.726-3.459-7.726-7.726s3.459-7.726,7.726-7.726h322.426
		c4.267,0,7.726,3.459,7.726,7.726S496.408,218.9,492.141,218.9z"/>
</g>
<path style="fill:#1E88D8;" d="M225.17,211.174c0-4.267,3.459-7.726,7.726-7.726h-63.181c-4.267,0-7.726,3.459-7.726,7.726
	s3.459,7.726,7.726,7.726h63.181C228.628,218.9,225.17,215.441,225.17,211.174z"/>
<path style="fill:#FAC149;" d="M482.637,300.794H196.312c-4.418,0-8.228-3.104-9.12-7.431l-58.16-281.984
	C127.666,4.754,121.832,0,115.067,0H27.148c-6.623,0-12.614,4.384-14.171,10.822c-2.304,9.524,4.848,18.022,13.986,18.022h72.854
	c2.109,0,3.929,1.482,4.355,3.548l54.716,265.288c0.589,2.858-1.027,5.678-3.763,6.694c-20.761,7.706-35.225,28.481-33.34,52.28
	c2.122,26.791,25.086,47.152,51.961,47.152h265.248c6.623,0,12.614-4.385,14.172-10.822c2.303-9.524-4.849-18.021-13.986-18.021
	H173.465c-12.297,0-22.806-9.542-23.247-21.831c-0.463-12.873,9.876-23.494,22.648-23.494h309.587
	c6.623,0,12.615-4.385,14.171-10.823C498.927,309.291,491.774,300.794,482.637,300.794z"/>
<g>
	<path style="fill:#F8A748;" d="M136.804,357.599c-2.233-22.843,11.53-37.512,30.745-44.979c5.002-1.944,7.813-7.278,6.729-12.534
		l-55.17-267.695c-0.426-2.066-2.245-3.548-4.355-3.548H99.816c2.109,0,3.929,1.482,4.355,3.548l54.716,265.288
		c0.589,2.858-1.027,5.678-3.763,6.694c-20.761,7.706-35.225,28.481-33.34,52.28c2.122,26.791,25.086,47.152,51.961,47.152h14.906
		C162.143,403.805,139.384,383.982,136.804,357.599z"/>
	<path style="fill:#F8A748;" d="M210.919,411.531c-4.267,0-7.726-3.459-7.726-7.726v-28.843c0-4.267,3.459-7.726,7.726-7.726
		s7.726,3.458,7.726,7.726v28.843C218.645,408.073,215.186,411.531,210.919,411.531z"/>
	<path style="fill:#F8A748;" d="M398.4,411.531c-4.267,0-7.726-3.459-7.726-7.726v-28.843c0-4.267,3.459-7.726,7.726-7.726
		s7.726,3.458,7.726,7.726v28.843C406.126,408.073,402.667,411.531,398.4,411.531z"/>
</g>
<g>
	<path style="fill:#F38D1A;" d="M210.919,387.323c-4.267,0-7.726-3.458-7.726-7.726v24.208c0,4.267,3.459,7.726,7.726,7.726
		s7.726-3.459,7.726-7.726v-24.208C218.645,383.865,215.186,387.323,210.919,387.323z"/>
	<path style="fill:#F38D1A;" d="M398.4,387.323c-4.267,0-7.726-3.458-7.726-7.726v24.208c0,4.267,3.459,7.726,7.726,7.726
		s7.726-3.459,7.726-7.726v-24.208C406.126,383.865,402.667,387.323,398.4,387.323z"/>
</g>
<path style="fill:#647892;" d="M82.155,0H26.74c-6.623,0-12.615,4.385-14.172,10.822c-2.303,9.524,4.849,18.021,13.986,18.021h55.6
	L82.155,0L82.155,0z"/>
<path style="fill:#4D6682;" d="M47.579,10.822C49.136,4.385,55.128,0,61.751,0H26.74c-6.623,0-12.614,4.385-14.171,10.822
	c-2.303,9.524,4.849,18.021,13.986,18.021h35.011C52.428,28.843,45.276,20.346,47.579,10.822z"/>
<path style="fill:#647892;" d="M237.77,504.74c-25.915,14.962-59.17,6.051-74.131-19.863c-14.962-25.914-6.051-59.169,19.864-74.131
	c25.914-14.962,59.169-6.051,74.131,19.863C272.595,456.523,263.685,489.778,237.77,504.74z M197.763,435.446
	c-12.295,7.098-16.523,22.876-9.424,35.17c7.098,12.295,22.876,16.522,35.171,9.424c12.295-7.098,16.522-22.875,9.424-35.17
	C225.835,432.575,210.058,428.347,197.763,435.446z"/>
<path style="fill:#4D6682;" d="M216.887,482.714c-25.038,6.256-42.702-24.3-24.751-42.869c-0.619-12.845,3.345-25.622,11.242-35.872
	c-6.813,0.911-13.562,3.128-19.875,6.773c-25.915,14.962-34.825,48.217-19.864,74.131c19.243,33.329,66.414,36.564,89.935,6.037
	C240.749,492.628,227.701,489.672,216.887,482.714z"/>
<path style="fill:#647892;" d="M425.8,504.74c-25.915,14.962-59.17,6.051-74.131-19.863c-14.962-25.914-6.051-59.169,19.864-74.131
	c25.914-14.962,59.169-6.051,74.131,19.863C460.625,456.523,451.714,489.778,425.8,504.74z M385.793,435.446
	c-12.295,7.098-16.523,22.876-9.424,35.17c7.098,12.295,22.876,16.522,35.171,9.424c12.295-7.098,16.522-22.875,9.424-35.17
	C413.865,432.575,398.088,428.347,385.793,435.446z"/>
<path style="fill:#4D6682;" d="M404.916,482.714c-25.038,6.256-42.702-24.299-24.751-42.869
	c-0.619-12.845,3.345-25.622,11.242-35.872c-6.813,0.911-13.562,3.128-19.875,6.773c-25.915,14.962-34.825,48.217-19.864,74.131
	c14.962,25.914,48.217,34.825,74.131,19.863c6.313-3.645,11.608-8.381,15.803-13.826
	C428.778,492.628,415.731,489.672,404.916,482.714z"/>
<g>
</g>
<g>
</g>
<g>
</g>
<g>
</g>
<g>
</g>
<g>
</g>
<g>
</g>
<g>
</g>
<g>
</g>
<g>
</g>
<g>
</g>
<g>
</g>
<g>
</g>
<g>
</g>
<g>
</g>
</svg>
