<svg height="512" viewBox="0 0 52 60" width="512" xmlns="http://www.w3.org/2000/svg"><g id="Page-1" fill="none" fill-rule="evenodd"><g id="072---Technology-Podcast" fill-rule="nonzero"><path id="Shape" d="m41 27h-30c-1.1045695 0-2 .8954305-2 2v22c0 1.1045695.8954305 2 2 2h12l-2 6h10l-2-6h12c1.1045695 0 2-.8954305 2-2v-22c0-1.1045695-.8954305-2-2-2z" fill="#3b97d3"/><g fill="#fac176"><path id="Shape" d="m38 4.82c-.1568771.00187716-.3116796-.03596343-.45-.11-7.2619253-3.61377644-15.7980747-3.61377644-23.06 0-.4835272.20135037-1.0404963-.00451411-1.2768341-.47193782-.2363378-.4674237-.0719586-1.03801484.3768341-1.30806218 7.826189-3.90682731 17.033811-3.90682731 24.86 0 .490313.24957563.6869243.84834645.44 1.34-.1694502.33627965-.5134418.5488587-.89.55z"/><path id="Shape" d="m50.73 18.2c-.3988865.001389-.7604469-.2344113-.92-.6-1.9126485-4.3799245-4.9955489-8.14791396-8.91-10.89-.3593821-.33473989-.4224901-.88090823-.1489147-1.28878424s.8028476-.55671623 1.2489147-.35121576c4.2360206 2.94616399 7.5755759 7.0055406 9.65 11.73.106972.2438981.1122338.5203917.014619.7681832-.0976149.2477915-.2900413.446408-.534619.5518168-.1274391.0504989-.2629413.0775993-.4.08z"/><path id="Shape" d="m1.27 18.2c-.13705873-.0024007-.2725609-.0295011-.4-.08-.24457774-.1054088-.43700412-.3040253-.53461896-.5518168s-.09235301-.5242851.01461896-.7681832c2.07442413-4.7244594 5.41397945-8.78383601 9.65-11.73.4460671-.20550047.9753393-.05666025 1.2489147.35121576s.2104674.95404435-.1489147 1.28878424c-3.91445106 2.74208604-6.99735151 6.5100755-8.91 10.89-.15955313.3655887-.52111355.601389-.92.6z"/></g><path id="Shape" d="m33.94 9.57c-.1311765.00338011-.2613206-.02401865-.38-.08-4.8458268-1.97851746-10.2741732-1.97851746-15.12 0-.3359032.17820328-.7438083.15048192-1.0525129-.07152909-.3087045-.22201101-.4647856-.59989163-.4027343-.97504094.0620514-.3751493.3314969-.68264594.6952472-.79342997 5.3304212-2.1903805 11.3095788-2.1903805 16.64 0 .4352092.18530766.6810524.65020255.5892156 1.11421976-.0918367.4640172-.4962304.80021939-.9692156.80578024z" fill="#f18d46"/><path id="Shape" d="m45 20c-.3846594-.0010889-.7345973-.2227162-.9-.57-1.5770605-3.3013433-4.0337254-6.1040173-7.1-8.1-.3001031-.1964961-.4725804-.538169-.4524613-.896314.020119-.3581449.2297778-.6783511.55-.83999997.3202221-.16164887.7023582-.1401821 1.0024613.05631397 3.3497365 2.200836 6.030592 5.2794959 7.75 8.9.2359653.4971358.0259259 1.0915024-.47 1.33-.1173333.0650887-.2465654.1058988-.38.12z" fill="#f18d46"/><path id="Shape" d="m7 20c-.14899327-.000883-.29590632-.0350488-.43-.1-.49592592-.2384976-.70596525-.8328642-.47-1.33 1.71940799-3.6205041 4.4002635-6.699164 7.75-8.9.4583963-.31756373 1.0874363-.20339634 1.405.255.3175637.4583963.2033963 1.0874363-.255 1.405-3.0266412 2.0044404-5.44732871 4.7986055-7 8.08-.17333866.3898566-.57493492.6267984-1 .59z" fill="#f18d46"/><path id="Shape" d="m29.76 14.49c-.086388.0098286-.173612.0098286-.26 0-2.2934853-.6098484-4.7065147-.6098484-7 0-.5440005.1380712-1.0969288-.1909995-1.235-.735s.1909995-1.0969288.735-1.235c2.6229134-.6831556 5.3770866-.6831556 8 0 .2578875.067951.4779489.2360982.6112738.4670696s.1688668.5056298.0987262.7629304c-.1160073.4310548-.5036625.7330177-.95.74z" fill="#fac176"/><path id="Shape" d="m39.16 21.8c-.3664539.0010002-.7041028-.1985196-.88-.52-1.2166083-2.1866428-2.9943595-4.0092693-5.15-5.28-.3478371-.1572029-.5758412-.4987108-.5876816-.8802382-.0118403-.3815275.1945486-.7365164.5319684-.9149856.3374198-.1784693.7470071-.1492845 1.0557132.0752238 2.4588589 1.4556506 4.4851223 3.5405962 5.87 6.04.127958.2332561.1576916.5078865.0826217.763124-.0750698.2552375-.248754.4700391-.4826217.596876-.1354656.0733576-.2860481.1144256-.44.12z" fill="#fac176"/><path id="Shape" d="m12.84 21.8c-.1675258.0008382-.3325776-.0404248-.48-.12-.2338677-.1268369-.4075519-.3416385-.4826217-.596876-.0750699-.2552375-.0453363-.5298679.0826217-.763124 1.3846661-2.5166464 3.418568-4.616158 5.89-6.08.4672916-.2111896 1.0186013-.0346812 1.2763444.408637.2577431.4433181.1383777 1.0097539-.2763444 1.311363-2.1608577 1.2817258-3.9391025 3.1186699-5.15 5.32-.1724222.3152547-.5007284.5137654-.86.52z" fill="#fac176"/><path id="Shape" d="m29 20c0 1.6568542-1.3431458 3-3 3s-3-1.3431458-3-3 1.3431458-3 3-3 3 1.3431458 3 3z" fill="#e64c3c"/><path id="Shape" d="m30.92 27h-9.82c.4752686-2.3283313 2.5236569-4.000485 4.9-4 2.383852-.0100178 4.4432464 1.6642866 4.92 4z" fill="#c03a2b"/><path id="Shape" d="m43 29v19h-34v-19c0-1.1045695.8954305-2 2-2h30c1.1045695 0 2 .8954305 2 2z" fill="#2c3e50"/><path id="Shape" d="m41.42 27.05c-6.69.31-32.42 2.68-32.42 20.95v-19c0-1.1045695.8954305-2 2-2h30c.141409.0012293.2822546.0179966.42.05z" fill="#35495e"/><path id="Shape" d="m31 59h-10l2-6h6z" fill="#2980ba"/><path id="Shape" d="m34 60h-16c-.5522847 0-1-.4477153-1-1s.4477153-1 1-1h16c.5522847 0 1 .4477153 1 1s-.4477153 1-1 1z" fill="#3b97d3"/><path id="Shape" d="m13 33c-.265803.0015368-.5212812-.1028135-.71-.29-.1893127-.1877666-.2957983-.4433625-.2957983-.71s.1064856-.5222334.2957983-.71l1-1c.3921222-.3921222 1.0278778-.3921222 1.42 0s.3921222 1.0278778 0 1.42l-1 1c-.1887188.1871865-.444197.2915368-.71.29z" fill="#fff"/><path id="Shape" d="m13 38c-.265803.0015368-.5212812-.1028135-.71-.29-.1893127-.1877666-.2957983-.4433625-.2957983-.71s.1064856-.5222334.2957983-.71l6-6c.2536586-.2536586.623374-.3527235.969878-.259878.3465041.0928454.6171546.3634959.71.71.0928455.346504-.0062194.7162194-.259878.969878l-6 6c-.1887188.1871865-.444197.2915368-.71.29z" fill="#fff"/></g></g></svg>