<?xml version="1.0" encoding="UTF-8"?>
<svg width="19px" height="23px" viewBox="0 0 19 23" version="1.1" xmlns="http://www.w3.org/2000/svg" xmlns:xlink="http://www.w3.org/1999/xlink">
    <!-- Generator: Sketch 60 (88103) - https://sketch.com -->
    <title>Icon-design</title>
    <desc>Created with Sketch.</desc>
    <defs>
        <path d="M3.20875415,6.07764417 L0.542844379,7.52142331 C0.547393713,7.5473865 1.95086328,10.6784619 1.95086328,10.6784619 L5.74988575,10.6784619 C5.74988575,10.6784619 3.23377548,6.10022086 3.20875415,6.07764417 Z M2.98697411,5.54822086 L0.427973694,4.06719018 C0.333575011,4.01300613 0.215292326,4.0152638 0.126580311,4.07509202 C0.036730963,4.13492024 -0.0121743783,4.24103067 0.00261095748,4.34826994 L0.359733682,7.02925153 C0.360871016,7.03038036 0.362008349,7.03263803 0.362008349,7.0348957 L3.02678078,5.58998773 C3.01199545,5.57757055 3.00403411,5.55838036 2.98697411,5.54822086 L2.98697411,5.54822086 Z M13.9542812,18.0974724 L16.4284572,18.071319 L16.4284572,14.7856048 L13.9542812,14.7856048 L13.9542812,18.0974724 Z M18.0714286,18.0974724 C18.0714286,19.3414478 17.0512404,20.3551411 15.7967615,20.3551411 L13.9542812,20.3551411 L13.9542812,21.2356319 C13.9542812,22.9288834 11.6796142,23 11.6796142,23 L4.21643164,23 C4.21643164,23 1.94176461,22.9288834 1.94176461,21.2356319 L1.94176461,11.4998905 L13.9542812,11.4998905 L13.9542812,12.6474601 L15.7967615,12.6474601 C17.0512404,12.6474601 18.0714286,13.6600245 18.0714286,14.9051288 L18.0714286,18.0974724 Z M10.7595114,10.6784619 L13.7370505,10.6784619 L15.3748108,6.20858895 L13.6995185,5.53128834 L10.7595114,10.6784619 Z M17.2798444,3.62468711 C17.3662818,1.57585276 15.7319335,0.377030672 14.2386146,0.588122696 C14.2386146,0.588122696 15.1632668,1.71695705 14.5946,2.45747239 C14.0748386,3.134773 13.1752078,4.1563681 13.9838519,5.06169325 L15.6568695,5.73786503 C16.2073389,5.58773006 17.2161538,5.11361963 17.2798444,3.62468711 L17.2798444,3.62468711 Z M8.8442419,1.6458561 L8.84424173,2.46417619 L10.6784572,2.46417619 L10.6784572,4.11675957 L7.79903246,4.11675957 L7.7990324,4.93818814 L10.6784572,4.93818814 L10.6784572,6.57131904 L9.0356002,6.57131904 L9.0356002,7.40999426 L10.6784572,7.40999426 L10.6784572,10.6784619 L5.75069456,10.6784619 L5.75069456,-7.10542736e-15 L10.6784572,-7.10542736e-15 L10.6784572,0.0933440166 L10.6784572,1.64274762 L8.8442419,1.6458561 Z" id="path-1"></path>
    </defs>
    <g id="Design-Sprint" stroke="none" stroke-width="1" fill="none" fill-rule="evenodd">
        <g id="T1---LG---HP11" transform="translate(-456.000000, -2939.000000)">
            <g id="use-casse-CAT" transform="translate(129.000000, 2809.000000)">
                <g id="Icon/14/design-creative" transform="translate(324.000000, 130.000000)">
                    <g id="Color" transform="translate(3.285714, 0.000000)">
                        <mask id="mask-2" fill="white">
                            <use xlink:href="#path-1"></use>
                        </mask>
                        <use id="Mask" fill="#A0A0A0" xlink:href="#path-1"></use>
                        <g id="Color/Midnight-Blue" mask="url(#mask-2)" fill="#1D4354">
                            <g transform="translate(-3.285714, 0.000000)" id="color">
                                <rect x="0" y="0" width="23" height="23"></rect>
                            </g>
                        </g>
                    </g>
                </g>
            </g>
        </g>
    </g>
</svg>