<?xml version="1.0" encoding="UTF-8"?>
<svg width="90px" height="74px" viewBox="0 0 90 74" version="1.1" xmlns="http://www.w3.org/2000/svg" xmlns:xlink="http://www.w3.org/1999/xlink">
    <!-- Generator: sketchtool 60 (101010) - https://sketch.com -->
    <title>5F74468D-1251-4C32-8DB9-C1CFD043F372</title>
    <desc>Created with sketchtool.</desc>
    <g id="Design-R5" stroke="none" stroke-width="1" fill="none" fill-rule="evenodd">
        <g id="Toggle-R5-(XL)-&gt;1200---Desktop" transform="translate(-1645.000000, -676.000000)">
            <g id="VPs" transform="translate(730.000000, 673.000000)">
                <g id="1-2-3">
                    <g id="Icon+Text" transform="translate(780.000000, 0.000000)">
                        <g id="illo-enterprise-ready" transform="translate(135.000000, 0.000000)">
                            <rect id="Rectangle" x="0" y="0" width="89.7297297" height="80"></rect>
                            <path d="M58.2253122,70.6830769 L54.3143336,72.96 C53.0245219,73.7100607 51.557161,74.1046159 50.0630009,74.1046159 L25.1800186,74.1046159 C22.8360426,74.0800559 20.8394972,72.4044348 20.4212488,70.1107692 C20.24317,68.7453139 20.6984965,67.3733463 21.6589003,66.3815385 C21.7486647,66.2664572 21.7647162,66.1105959 21.7002725,65.9798096 C21.6358289,65.8490233 21.5021334,65.7661299 21.3556757,65.7661538 C18.645219,65.7661538 17.345685,63.3723077 17.345685,61.3292308 C17.3434591,60.417809 17.6196847,59.5272136 18.1377819,58.7753846 C18.2330468,58.6419145 18.2543809,58.4697331 18.1945459,58.3172584 C18.1347109,58.1647838 18.0017391,58.0524845 17.8407456,58.0184615 C16.1976992,57.6561597 14.8888195,56.4234888 14.4357169,54.8116889 C13.9826143,53.199889 14.4589343,51.4709358 15.6748555,50.3138462 C15.7952984,50.194354 15.8475095,50.0227905 15.8139045,49.8569376 C15.7802995,49.6910846 15.6653508,49.5530153 15.5077726,49.4892308 C13.6835893,48.7882624 12.51301,47.0074829 12.5992917,45.0646154 C12.776741,42.5674878 14.8906933,40.6465611 17.4075676,40.6953846 L36.1084809,40.6953846 C35.4525256,36.3138462 34.7594408,27.9015385 35.3844548,25.9630769 C36.1394222,23.6430769 37.8597577,21.7107692 40.3907549,21.7107692 C43.2002237,21.7107692 44.7658527,23.9753846 44.7658527,26.7692308 C44.7658527,26.8307692 44.7658527,26.8861538 44.7658527,26.9476923 L44.7658527,26.9476923 C44.7658527,26.9476923 46.0035042,46.2030769 58.1943709,50.2153846 L64.6549115,50.2153846 L64.6549115,70.9661538 L58.2253122,70.6830769 Z" id="Path" fill="#B2B2B2" fill-rule="nonzero"></path>
                            <rect id="Rectangle" fill="#336278" fill-rule="nonzero" x="55.2920783" y="44.5292308" width="34.4376514" height="31.6923077"></rect>
                            <path d="M2.36391426,33.2738462 L2.36391426,35.2123077 L0.414613234,35.2123077 C0.185628668,35.2123077 -1.77635684e-15,35.3969041 -1.77635684e-15,35.6246154 C-1.77635684e-15,35.8523266 0.185628668,36.0369231 0.414613234,36.0369231 L2.36391426,36.0369231 L2.36391426,37.9753846 C2.36391426,38.2030959 2.54954293,38.3876923 2.77852749,38.3876923 C3.00751206,38.3876923 3.19314073,38.2030959 3.19314073,37.9753846 L3.19314073,36.0369231 L5.14244175,36.0369231 C5.37142632,36.0369231 5.55705499,35.8523266 5.55705499,35.6246154 C5.55705499,35.3969041 5.37142632,35.2123077 5.14244175,35.2123077 L3.19314073,35.2123077 L3.19314073,33.2738462 C3.19314073,33.1265428 3.1141159,32.9904289 2.98583411,32.9167772 C2.85755233,32.8431255 2.69950266,32.8431255 2.57122087,32.9167772 C2.44293909,32.9904289 2.36391425,33.1265428 2.36391426,33.2738462 Z" id="Path" fill="#FFCC0D" fill-rule="nonzero"></path>
                            <ellipse id="Oval" fill="#F3756C" fill-rule="nonzero" cx="13.7874371" cy="21.2738462" rx="1.65226468" ry="1.64307692"></ellipse>
                            <ellipse id="Oval" fill="#6FDA44" fill-rule="nonzero" cx="62.3405033" cy="14.7569231" rx="11.0398509" ry="10.9784615"></ellipse>
                            <path d="M60.9605219,19.2984829 C60.6891748,19.3002147 60.4284226,19.1938343 60.2364958,19.0030769 L56.585424,15.3846154 C56.3926953,15.1940324 56.2843302,14.9349009 56.2843302,14.6646154 C56.2843302,14.3943298 56.3926953,14.1351984 56.585424,13.9446154 C56.9874208,13.5521128 57.6314795,13.5521128 58.0334762,13.9446154 L60.9605219,16.8615385 L67.4086859,10.5230769 C67.8119722,10.1288306 68.4602872,10.1343409 68.8567381,10.5353846 C69.253189,10.9364283 69.2476479,11.5811383 68.8443616,11.9753846 L61.6783597,19.0092308 C61.4858313,19.1945337 61.2284574,19.2982346 60.9605219,19.2984829 L60.9605219,19.2984829 Z" id="Path" fill="#FFFFFF" fill-rule="nonzero"></path>
                            <path d="M53.8378378,44.5292308 L63.3615657,44.5292308 L63.3615657,76.2215385 L53.8378378,76.2215385 C53.4960698,76.2215385 53.2190121,75.9460214 53.2190121,75.6061538 L53.2190121,45.1384615 C53.2224058,44.8009997 53.498472,44.5292308 53.8378378,44.5292308 L53.8378378,44.5292308 Z" id="Path" fill="#1D4354" fill-rule="nonzero"></path>
                            <ellipse id="Oval" fill="#336278" fill-rule="nonzero" cx="58.3428891" cy="50.0553846" rx="1.65226468" ry="1.64307692"></ellipse>
                        </g>
                    </g>
                </g>
            </g>
        </g>
    </g>
</svg>