<?xml version="1.0" encoding="UTF-8"?>
<svg width="23px" height="21px" viewBox="0 0 23 21" version="1.1" xmlns="http://www.w3.org/2000/svg" xmlns:xlink="http://www.w3.org/1999/xlink">
    <!-- Generator: Sketch 60 (88103) - https://sketch.com -->
    <title>Icon-writing</title>
    <desc>Created with Sketch.</desc>
    <defs>
        <path d="M5.75008211,20.1245071 L5.75008211,21.7673643 L0,21.7673643 L0,20.1245071 L5.75008211,20.1245071 Z M14.0914798,4.05473571 L20.207,10.1191429 C19.9504241,10.2971583 16.8488302,13.43903 16.0921441,17.1374748 L16.0432219,17.3963786 C11.5860869,16.37945 8.18203826,19.8113786 7.62345886,20.3732357 L7.62345886,20.3732357 L6.29765421,19.0573071 L11.4940856,13.8182357 C11.9738067,13.9447357 12.5061,13.8182357 12.8806768,13.4403786 C13.4408991,12.8768786 13.4359704,11.9667357 12.8724624,11.4081643 C12.3089543,10.84795 11.3987985,10.8512357 10.8402191,11.4163786 C10.4656423,11.7942357 10.3440691,12.3265214 10.4738567,12.8062357 L10.4738567,12.8062357 L5.27578248,18.0453071 L3.94997783,16.7293786 C4.50855724,16.1658786 7.91096297,12.7355929 6.8578765,8.28673571 C11.1917955,7.53266429 13.7070457,4.72502143 14.0914798,4.05473571 L14.0914798,4.05473571 Z M16.9114843,1.23214286 L22.9835711,7.3025 L20.9841854,9.30185714 L14.9120987,3.22985714 L16.9114843,1.23214286 Z" id="path-1"></path>
    </defs>
    <g id="Design-Sprint" stroke="none" stroke-width="1" fill="none" fill-rule="evenodd">
        <g id="T1---LG---HP11" transform="translate(-588.000000, -2940.000000)">
            <g id="use-casse-CAT" transform="translate(129.000000, 2809.000000)">
                <g id="Icon/14/writers" transform="translate(459.000000, 130.000000)">
                    <mask id="mask-2" fill="white">
                        <use xlink:href="#path-1"></use>
                    </mask>
                    <use id="writers" fill="#A0A0A0" fill-rule="evenodd" xlink:href="#path-1"></use>
                    <g id="Color/Midnight-Blue" mask="url(#mask-2)" fill="#1D4354" fill-rule="evenodd">
                        <rect id="color" x="0" y="0" width="23" height="23"></rect>
                    </g>
                </g>
            </g>
        </g>
    </g>
</svg>