<?xml version="1.0" encoding="iso-8859-1"?>
<!-- Generator: Adobe Illustrator 19.0.0, SVG Export Plug-In . SVG Version: 6.00 Build 0)  -->
<svg version="1.1" id="Capa_1" xmlns="http://www.w3.org/2000/svg" xmlns:xlink="http://www.w3.org/1999/xlink" x="0px" y="0px"
	 viewBox="0 0 494.237 494.237" style="enable-background:new 0 0 494.237 494.237;" xml:space="preserve">
<path style="fill:#1185E0;" d="M313.992,312.947c8.882,0,15.673-6.792,15.673-15.673v-14.629h34.482
	c22.465,0,43.886-8.882,60.082-25.078c16.196-16.196,25.078-37.616,25.078-60.082c0-28.735-14.106-54.857-37.616-70.531
	c0-2.09,0-4.18,0-6.792C411.69,53.812,357.878,0,291.527,0c-42.841,0-82.547,22.988-103.967,60.082
	c-2.612,0-5.224-0.522-7.837-0.522c-40.229,0-77.322,25.6-91.429,63.739c-7.314,3.657-13.584,8.359-18.808,14.106
	C53.29,153.6,44.408,175.02,44.408,197.486c0,47.02,38.139,85.159,85.159,85.159h34.482v14.629c0,8.882,6.792,15.673,15.673,15.673
	h51.722v20.898H87.771c-8.882,0-15.673,6.792-15.673,15.673v52.767h31.347v-37.094h128v47.02h31.347v-47.02h128v37.094h31.347
	v-52.767c0-8.882-6.792-15.673-15.673-15.673H262.792v-20.898H313.992z M284.212,176.588h-74.188v-12.539
	c0-20.898,16.718-37.616,37.094-37.616s37.094,16.718,37.094,37.616V176.588z M129.567,251.298
	c-29.78,0-53.812-24.033-53.812-53.812c0-14.106,5.747-27.69,15.673-38.139c4.18-4.18,9.927-8.359,15.673-10.971
	c4.18-2.09,6.792-5.224,8.359-9.404c8.882-28.212,35.004-48.065,63.739-48.065c4.702,0,9.404,0.522,13.584,1.045
	c7.314,1.567,14.106-2.09,17.241-8.882C224.653,51.2,256,30.824,291.004,30.824c49.11,0,88.816,39.706,88.816,88.816
	c0,4.18-0.522,7.837-1.045,12.539v1.045c-0.522,6.269,2.612,12.539,8.359,15.673c18.286,9.404,29.78,27.69,29.78,48.065
	c0,14.106-5.747,27.69-15.673,38.139c-9.927,9.927-23.51,15.673-38.139,15.673H328.62v-58.514c0-8.359-6.269-14.629-14.106-15.673
	v-12.539c0-38.139-30.824-68.963-68.441-68.963s-68.441,30.824-68.441,68.963v12.539c-8.359,0.522-14.629,7.314-14.629,15.673
	v59.037H129.567z M195.396,207.935h102.922V281.6H195.396V207.935z"/>
<g>
	<path style="fill:#4DCFE0;" d="M290.482,494.237h-86.204c-8.882,0-15.673-6.792-15.673-15.673v-71.576
		c0-8.882,6.792-15.673,15.673-15.673h86.204c8.882,0,15.673,6.792,15.673,15.673v71.576
		C306.155,487.445,299.363,494.237,290.482,494.237z M219.951,462.89h54.857v-40.229h-54.857V462.89z"/>
	<path style="fill:#4DCFE0;" d="M450.351,494.237h-86.204c-8.882,0-15.673-6.792-15.673-15.673v-71.576
		c0-8.882,6.792-15.673,15.673-15.673h86.204c8.882,0,15.673,6.792,15.673,15.673v71.576
		C466.024,487.445,459.233,494.237,450.351,494.237z M379.82,462.89h54.857v-40.229H379.82V462.89z"/>
	<path style="fill:#4DCFE0;" d="M130.09,494.237H43.886c-8.882,0-15.673-6.792-15.673-15.673v-71.576
		c0-8.882,6.792-15.673,15.673-15.673h86.204c8.882,0,15.673,6.792,15.673,15.673v71.576
		C145.763,487.445,138.971,494.237,130.09,494.237z M59.559,462.89h54.857v-40.229H59.559V462.89z"/>
</g>
<g>
</g>
<g>
</g>
<g>
</g>
<g>
</g>
<g>
</g>
<g>
</g>
<g>
</g>
<g>
</g>
<g>
</g>
<g>
</g>
<g>
</g>
<g>
</g>
<g>
</g>
<g>
</g>
<g>
</g>
</svg>
