<svg id="Capa_1" enable-background="new 0 0 512 512" height="512" viewBox="0 0 512 512" width="512" xmlns="http://www.w3.org/2000/svg"><g><path d="m372 352h-11.811c11.595-10.425 21.619-22.559 29.682-36h82.129c11.046 0 20-8.954 20-20v-120c0-11.046-8.954-20-20-20h-21.143c-9.962-87.663-84.573-156-174.857-156h-40c-90.284 0-164.895 68.337-174.857 156h-21.143c-11.046 0-20 8.954-20 20v120c0 11.046 8.954 20 20 20h82.129c8.063 13.441 18.087 25.575 29.682 36h-11.811c-77.196 0-140 62.804-140 140 0 11.046 8.954 20 20 20h472c11.046 0 20-8.954 20-20 0-77.196-62.804-140-140-140zm40-156h40v80h-40zm-312 80h-40v-80h40zm22.128-120h-20.654c9.702-65.542 66.329-116 134.526-116h40c68.197 0 124.824 50.458 134.526 116h-20.654c-27.286-45.487-77.079-76-133.872-76s-106.586 30.513-133.872 76zm17.872 80c0-63.962 52.037-116 116-116s116 52.038 116 116-52.037 116-116 116-116-52.038-116-116zm-97.991 236c9.293-45.587 49.7-80 97.991-80h232c48.291 0 88.698 34.413 97.991 80z"/></g></svg>