<svg id="flat" height="512" viewBox="0 0 512 512" width="512" xmlns="http://www.w3.org/2000/svg"><path d="m328 376h64v48h-64z" fill="#e0edff"/><path d="m360 408a8.00008 8.00008 0 0 1 -8-8v-24a8 8 0 0 1 16 0v24a8.00008 8.00008 0 0 1 -8 8z" fill="#bdd1f2"/><path d="m264.00006 253.02865a31.98555 31.98555 0 0 0 -6.4037-4.23047l-65.59636-32.79818-8-16h-48l-8 16-65.59636 32.79818a32 32 0 0 0 -17.20224 23.06054l-21.2014 120.14128 24 40h40v56h176z" fill="#62798c"/><path d="m173.46973 412.92285-88-29.33349a7.99967 7.99967 0 0 1 -5.46973-7.58936v-56h16v50.23389l82.53027 27.51025z" fill="#556c80"/><path d="m192 216-7.12481 10.68721a29.89625 29.89625 0 0 1 -24.87519 13.31279 29.89625 29.89625 0 0 1 -24.87517-13.31279l-7.12483-10.68721 8-16h48z" fill="#ffbfa1"/><path d="m232 192h256v184h-256z" fill="#548aff"/><circle cx="320" cy="256" r="8"/><path d="m432 280v40.67993a15.32125 15.32125 0 0 1 -28.46 7.88013l-19.54-32.56006h-48l-19.54 32.56006a15.32125 15.32125 0 0 1 -28.46-7.88013v-40.67993l1.7998-5.4 8.75-26.26a23.90842 23.90842 0 0 1 44.06006-3.13l1.39014 2.79h32l1.39014-2.79a23.90842 23.90842 0 0 1 44.06006 3.13l8.75 26.26v.01z" fill="#ffc431"/><g fill="#ffa100"><circle cx="400" cy="256" r="8"/><circle cx="320" cy="256" r="8"/><path d="m336 264h16v16h-16z"/><path d="m368 264h16v16h-16z"/></g><path d="m320 296h16l-19.54 32.56006a15.32125 15.32125 0 0 1 -28.46-7.88013v-40.67993l1.7998-5.4a32.00913 32.00913 0 0 0 30.2002 21.4z" fill="#ffb401"/><path d="m432 280v40.67993a15.32125 15.32125 0 0 1 -28.46 7.88013l-19.54-32.56006h16a32.02371 32.02371 0 0 0 30.2002-21.39z" fill="#ffb401"/><path d="m328 424h64v24h-64z" fill="#bdd1f2"/><path d="m160 448h328v40h-328z" fill="#d69651"/><path d="m248 432h-152l16-48 48 16 40-16 24 8 24 32z" fill="#ffceb6"/><path d="m160 432 112-16h24v32h-136z" fill="#e0edff"/><path d="m104 152.00006-4.80008-6.40012a95.99985 95.99985 0 0 1 -19.19992-57.59984v-.0001a64 64 0 0 1 64-64h32a64 64 0 0 1 64 64v.0001a95.99985 95.99985 0 0 1 -19.19992 57.59984l-4.80008 6.40012z" fill="#b1712c"/><path d="m216 96v56.00006a55.99994 55.99994 0 0 1 -55.99994 55.99994h-.00012a55.99994 55.99994 0 0 1 -55.99994-55.99994v-56.00006h35.15562a53.8962 53.8962 0 0 0 44.84438-24l7.12481 10.68721a29.89625 29.89625 0 0 0 24.87519 13.31279z" fill="#ffceb6"/><circle cx="136" cy="128" fill="#a36522" r="8"/><circle cx="184" cy="128" fill="#a36522" r="8"/><path d="m152 176h-8v-16h8a8.00917 8.00917 0 0 0 8-8v-8h16v8a24.0275 24.0275 0 0 1 -24 24z" fill="#c78869"/></svg>