<svg id="Layer_1_1_" enable-background="new 0 0 64 64" height="512" viewBox="0 0 64 64" width="512" xmlns="http://www.w3.org/2000/svg"><path d="m62 40v4c0 2.21-1.79 4-4 4h-52c-2.21 0-4-1.79-4-4v-4z" fill="#732de2"/><path d="m62 6v34h-60v-34c0-2.21 1.79-4 4-4h52c2.21 0 4 1.79 4 4z" fill="#f9f1e4"/><path d="m62 40h-30v-38h26c2.209 0 4 1.791 4 4z" fill="#e8dac5"/><path d="m46 28h-24c-1.105 0-2-.895-2-2v-7h28v7c0 1.105-.895 2-2 2z" fill="#e58842"/><path d="m48 26v-6c-4.413 0-8 3.587-8 8h6c1.105 0 2-.895 2-2z" fill="#d6713a"/><circle cx="48" cy="28" fill="#f4b34a" r="6"/><path d="m20 15h28v4h-28z" fill="#f4b34a"/><path d="m48 12v3h-28v-3c0-1.1.9-2 2-2h24c1.1 0 2 .9 2 2z" fill="#e58842"/><path d="m46 58c0 2.209-1.791 4-4 4h-20c-2.21 0-4-1.79-4-4z" fill="#732de2"/><path d="m38 48 3 10h-18l3-10z" fill="#4c1ea5"/><path d="m20 19h4.5c1.38 0 2.5 1.12 2.5 2.5 0 .69-.28 1.32-.73 1.77s-1.08.73-1.77.73h-22.5v-16h10l8-2 8 4h-6c-1.1 0-2 .9-2 2z" fill="#dbc6a9"/><path d="m38.6 50-.6-2h-12l-.6 2z" fill="#3c1991"/><g fill="#6c253d"><path d="m47 31.414-2.707-2.707 1.414-1.414 1.293 1.293 3.293-3.293 1.414 1.414z"/><path d="m29 22h2v2h-2z"/><path d="m33 22h2v2h-2z"/><path d="m37 22h2v2h-2z"/></g><path d="m17 17h3v2h-3z" fill="#ccb59a"/></svg>