<?xml version="1.0" encoding="iso-8859-1"?>
<!-- Generator: Adobe Illustrator 19.0.0, SVG Export Plug-In . SVG Version: 6.00 Build 0)  -->
<svg xmlns="http://www.w3.org/2000/svg" xmlns:xlink="http://www.w3.org/1999/xlink" version="1.1" id="Capa_1" x="0px" y="0px" viewBox="0 0 512 512" style="enable-background:new 0 0 512 512;" xml:space="preserve" width="512" height="512">
<g>
	<g>
		<g>
			<path style="fill:#EBEEF2;" d="M135.449,337.348H78.426c-39.171,0-70.926,31.755-70.926,70.927v74.112h198.875v-74.112     C206.375,369.103,174.62,337.348,135.449,337.348z"/>
			<path style="fill:#D1D6DE;" d="M135.449,337.348h-30.718c39.171,0,70.926,31.755,70.926,70.927v74.112h30.718v-74.112     C206.375,369.103,174.62,337.348,135.449,337.348z"/>
			<polygon style="fill:#ED5575;" points="115.405,337.348 98.47,337.348 75.058,416.922 106.938,449.573 138.817,416.922    "/>
			<g>
				<path style="fill:#F9C295;" d="M106.938,105.585L106.938,105.585c-44.715,0-80.964,36.249-80.964,80.964v39.034      c0,44.715,36.249,80.964,80.964,80.964l0,0c44.715,0,80.964-36.249,80.964-80.964v-39.034      C187.901,141.834,151.652,105.585,106.938,105.585z"/>
				<path style="fill:#E59F6A;" d="M106.938,105.585c-2.819,0-5.604,0.146-8.349,0.427c33.166,4.179,59.04,38.641,59.04,80.537      v39.034c0,41.896-25.874,76.358-59.04,80.537c2.745,0.281,5.529,0.427,8.349,0.427c44.715,0,80.964-36.249,80.964-80.964      v-39.034C187.902,141.834,151.652,105.585,106.938,105.585z"/>
				<path style="fill:#444966;" d="M159.615,125.105c0.001-0.003,0.002-0.006,0.002-0.01c-0.15-0.128-0.306-0.248-0.456-0.375      c-0.62-0.524-1.247-1.041-1.882-1.547c-0.29-0.231-0.583-0.457-0.876-0.684c-0.583-0.45-1.171-0.894-1.766-1.328      c-0.347-0.254-0.696-0.505-1.047-0.753c-0.546-0.385-1.096-0.762-1.651-1.134c-0.408-0.274-0.816-0.546-1.229-0.812      c-0.498-0.321-1.002-0.632-1.508-0.942c-0.478-0.294-0.955-0.588-1.44-0.872c-0.427-0.25-0.861-0.49-1.294-0.732      c-0.57-0.32-1.138-0.641-1.716-0.948c-0.297-0.157-0.601-0.305-0.9-0.459c-11.07-5.692-23.609-8.925-36.914-8.925      c-44.715,0-80.964,36.249-80.964,80.964v7.484c11.922,5.26,25.096,8.203,38.964,8.203c28.48,0,54.068-12.333,71.755-31.932      c11.184,17.234,29.739,29.242,51.208,31.528v-15.283C187.901,161.957,176.924,139.947,159.615,125.105z"/>
				<path style="fill:#2E344C;" d="M187.426,177.821c-0.057-0.527-0.133-1.049-0.2-1.573c-0.115-0.908-0.235-1.815-0.38-2.713      c-0.086-0.534-0.188-1.062-0.284-1.593c-0.161-0.885-0.33-1.767-0.52-2.641c-0.112-0.515-0.233-1.026-0.355-1.537      c-0.211-0.888-0.435-1.772-0.675-2.649c-0.131-0.476-0.265-0.949-0.404-1.422c-0.27-0.919-0.557-1.83-0.859-2.735      c-0.138-0.413-0.274-0.826-0.418-1.236c-0.347-0.986-0.715-1.961-1.099-2.929c-0.124-0.314-0.244-0.631-0.372-0.943      c-0.463-1.127-0.952-2.241-1.464-3.342c-0.066-0.142-0.127-0.287-0.194-0.43c-4.906-10.393-11.959-19.575-20.587-26.974      c0.001-0.003,0.002-0.006,0.002-0.009c-0.003-0.003-0.005-0.005-0.008-0.007c-0.147-0.125-0.3-0.243-0.448-0.368      c-0.62-0.524-1.246-1.041-1.882-1.547c-0.29-0.231-0.583-0.457-0.876-0.684c-0.583-0.45-1.171-0.893-1.767-1.328      c-0.347-0.254-0.696-0.505-1.047-0.753c-0.546-0.385-1.096-0.762-1.651-1.134c-0.408-0.274-0.816-0.546-1.229-0.812      c-0.498-0.321-1.002-0.632-1.508-0.942c-0.478-0.294-0.955-0.588-1.44-0.872c-0.427-0.25-0.861-0.49-1.294-0.732      c-0.57-0.32-1.138-0.641-1.716-0.948c-0.297-0.157-0.601-0.305-0.9-0.459c-3.435-1.766-7.012-3.294-10.708-4.564      c-0.069-0.024-0.138-0.047-0.208-0.07c-1.237-0.421-2.489-0.808-3.752-1.17c-0.308-0.088-0.615-0.178-0.925-0.263      c-0.622-0.17-1.247-0.335-1.875-0.491c-0.853-0.21-1.71-0.411-2.574-0.594c-0.476-0.101-0.955-0.192-1.433-0.285      c-0.797-0.154-1.598-0.299-2.403-0.429c-0.382-0.063-0.765-0.126-1.149-0.182c-1.016-0.15-2.038-0.278-3.065-0.39      c-0.304-0.033-0.608-0.068-0.913-0.097c-1.147-0.111-2.3-0.2-3.46-0.263c-0.236-0.013-0.473-0.022-0.709-0.032      c-1.241-0.057-2.486-0.095-3.74-0.095c-2.819,0-5.604,0.146-8.349,0.427c33.166,4.179,59.04,38.641,59.04,80.537v4.586      c8.911,5.735,19.198,9.517,30.272,10.697v-15.283c0-1.474-0.044-2.938-0.122-4.393c-0.024-0.455-0.071-0.903-0.103-1.356      C187.606,179.804,187.532,178.807,187.426,177.821z"/>
			</g>
		</g>
		<path style="fill:#9FD479;" d="M221.881,64.872l14.95-35.257c-6.945,0.291-13.932,0.851-20.952,1.716    c-26.752,3.295-52.03,10.596-75.32,21.213C168.784,52.037,196.186,56.39,221.881,64.872z"/>
		<path style="fill:#F2DF33;" d="M379.043,376.403l91.065,38.614c23.782-41.176,36.363-89.219,34.14-139.526l-113.067,13.926    C392.414,319.636,388.093,348.994,379.043,376.403z"/>
		<path style="fill:#ED5575;" d="M446.419,449.323l-83.356-35.345c-13.556,25.735-31.574,48.914-53.153,68.41h104.098    C425.796,472.334,436.653,461.273,446.419,449.323z"/>
		<path style="fill:#9FD479;" d="M328.686,134.877l72.288-54.516c-34.806-25.944-76.175-43.156-120.583-48.882l-20.929,49.358    C285.554,94.578,309.023,112.902,328.686,134.877z"/>
		<path style="fill:#F2DF33;" d="M386.189,248.892l113.067-13.927c-10.051-49.343-33.914-92.897-66.977-127.072l-78.973,59.558    C368.737,191.844,380.053,219.277,386.189,248.892z"/>
		<path style="fill:#5C9CEE;" d="M443.761,353.237c1.909-2.36,1.544-5.821-0.816-7.73c-0.417-0.337-0.874-0.578-1.345-0.775    l0.008-0.024c-10.143-4.24-146.789-61.362-186.079-77.786l-0.004,0.011c-8.504-3.559-18.667-1.287-24.759,6.242    c-7.396,9.14-5.982,22.546,3.159,29.942c2.527,2.044,5.383,3.392,8.345,4.113l-0.007,0.021    c41.368,10.107,185.241,45.259,195.92,47.869l0.005-0.016C440.189,355.59,442.38,354.944,443.761,353.237z"/>
		<circle style="fill:#EBEEF2;" cx="247.317" cy="286.567" r="37.679"/>
	</g>
	<g>
		<path d="M203.911,388.208c-4.076,0.736-6.784,4.637-6.048,8.714c0.672,3.719,1.012,7.539,1.012,11.353v66.612H15v-66.612    c0-34.974,28.453-63.427,63.426-63.427h10.019l-20.583,69.957c-0.766,2.603-0.066,5.416,1.829,7.356l31.879,32.65    c1.411,1.445,3.346,2.261,5.366,2.261s3.955-0.815,5.366-2.261l31.879-32.65c1.895-1.94,2.595-4.754,1.829-7.356l-20.583-69.957    h10.019c20.858,0,40.391,10.266,52.252,27.462c2.353,3.41,7.024,4.267,10.432,1.915c3.41-2.352,4.268-7.022,1.916-10.433    c-14.661-21.255-38.811-33.944-64.6-33.944h-20.043H98.47H78.426C35.182,329.848,0,365.03,0,408.275v74.112    c0,4.143,3.358,7.5,7.5,7.5h198.875c4.142,0,7.5-3.357,7.5-7.5v-74.112c0-4.705-0.421-9.422-1.25-14.019    C211.888,390.181,207.983,387.479,203.911,388.208z M109.794,344.848l20.588,69.978l-23.445,24.012l-23.445-24.012l20.588-69.978    H109.794z"/>
		<path d="M106.937,314.186c0.129,0,0.258,0,0.387-0.001c34.123-0.134,67.176-22.15,80.426-53.596    c7.409-17.583,8.879-37.083,8.751-56.163c-0.12-17.874-1.64-36.089-8.482-52.602c-21.923-52.909-91.348-69.611-135.944-34.787    c-2.289,1.788-4.557,3.77-5.791,6.4c-1.234,2.63-1.179,6.065,0.852,8.142c2.005,2.051,5.348,2.216,8.044,1.238    s4.933-2.883,7.214-4.622c22.468-17.128,55.142-19.581,79.915-5.999s40.277,42.447,37.92,70.601    c-13.447-3.073-25.694-11.139-33.828-22.279c-2.379-3.258-4.993-7.127-9.014-7.455c-3.914-0.319-7.09,2.903-9.856,5.69    c-23.909,24.096-62.451,32.331-94.119,20.108c-0.314-10.13,1.565-20.322,5.47-29.674c1.932-4.627,4.137-10.577,0.551-14.082    c-2.722-2.66-7.508-1.93-10.355,0.597c-2.847,2.527-4.195,6.304-5.272,9.955c-4.881,16.54-6.455,33.903-6.493,51.147    c-0.041,18.537,1.757,37.443,9.119,54.456C39.936,292.459,72.95,314.155,106.937,314.186z M33.474,204.876    c10.142,3.225,20.682,4.859,31.464,4.859c26.361,0,51.74-10.079,70.929-27.918c11.387,13.721,27.044,23.024,44.535,26.446v17.32    c0,40.508-32.956,73.464-73.464,73.464s-73.464-32.956-73.464-73.464V204.876z"/>
		<path d="M106.937,256.384h9.563c4.142,0,7.5-3.357,7.5-7.5s-3.358-7.5-7.5-7.5h-2.063v-17.492c0-4.143-3.358-7.5-7.5-7.5    s-7.5,3.357-7.5,7.5v24.992C99.437,253.027,102.795,256.384,106.937,256.384z"/>
		<path d="M140.694,60.043c26.822-0.482,53.354,3.54,78.836,11.951c0.778,0.257,1.571,0.38,2.351,0.38    c2.936,0,5.701-1.735,6.905-4.574l14.95-35.257c1.004-2.367,0.725-5.084-0.739-7.198c-1.464-2.113-3.906-3.352-6.479-3.223    c-7.257,0.303-14.509,0.896-21.556,1.766c-26.932,3.316-53.012,10.662-77.514,21.832c-3.234,1.474-4.989,5.016-4.204,8.481    C134.03,57.667,137.101,60.082,140.694,60.043z M216.797,38.775c2.764-0.34,5.561-0.636,8.38-0.886l-7.541,17.783    c-13.372-4.016-26.994-6.905-40.776-8.656C189.872,43.205,203.218,40.448,216.797,38.775z"/>
		<path d="M511.743,275.157c-0.092-2.089-1.053-4.045-2.649-5.396c-1.597-1.351-3.689-1.976-5.76-1.717l-113.07,13.93    c-3.883,0.478-6.746,3.86-6.576,7.769c0.067,1.549,0.115,3.098,0.145,4.646c0.077,4.143,3.514,7.457,7.64,7.358    c3.468-0.065,6.341-2.475,7.139-5.688l98.374-12.119c0.492,42.446-9.851,84.183-30.133,121.55l-78.61-33.328    c2.001-6.673,3.722-13.45,5.165-20.263c22.742,5.556,39.601,9.674,42.994,10.504c0.217,0.054,0.436,0.097,0.654,0.13    c0.802,0.151,1.609,0.226,2.412,0.226c3.883,0,7.65-1.735,10.131-4.811c2.178-2.695,3.18-6.077,2.819-9.523    c-0.361-3.455-2.047-6.562-4.747-8.747c-0.72-0.582-1.51-1.082-2.401-1.518c-0.248-0.139-0.504-0.263-0.769-0.373    c-8.188-3.417-98.651-41.235-153.958-64.361c-6.285-20.666-26.92-34.378-48.75-31.701c-24.717,3.053-42.354,25.648-39.314,50.369    c2.812,22.857,22.336,39.659,44.813,39.659c1.833,0,3.686-0.111,5.55-0.341c7.859-0.97,15.2-3.932,21.463-8.613l104.525,25.539    c-1.821,8.685-4.131,17.309-6.909,25.718c-1.225,3.707,0.6,7.733,4.194,9.258l91.07,38.61c0.952,0.403,1.944,0.596,2.924,0.596    c2.609,0,5.122-1.366,6.499-3.75C501.812,375.117,513.962,325.456,511.743,275.157z M251.004,316.524    c-1.246,0.153-2.481,0.229-3.707,0.229c-15.012-0.002-28.056-11.224-29.934-26.49c-2.03-16.516,9.752-31.611,26.261-33.65    c1.223-0.15,2.438-0.224,3.645-0.224c14.082,0,26.699,9.984,29.601,24.061c0.152,0.726,0.283,1.525,0.396,2.429    c1.209,9.785-2.46,19.568-9.816,26.169c-0.001,0.001-0.002,0.002-0.003,0.003C262.852,313.179,257.165,315.763,251.004,316.524z     M285.972,309.925c0.211-0.349,0.406-0.705,0.607-1.059c0.237-0.418,0.477-0.835,0.7-1.26c0.192-0.364,0.369-0.734,0.55-1.103    c0.21-0.426,0.421-0.852,0.617-1.285c0.171-0.377,0.328-0.759,0.488-1.14c0.183-0.436,0.367-0.87,0.536-1.311    c0.149-0.388,0.285-0.779,0.423-1.17c0.157-0.444,0.313-0.887,0.456-1.336c0.127-0.397,0.241-0.798,0.357-1.199    c0.13-0.45,0.258-0.9,0.374-1.354c0.104-0.407,0.196-0.817,0.289-1.227c0.103-0.456,0.203-0.911,0.291-1.37    c0.08-0.416,0.151-0.833,0.219-1.251c0.075-0.458,0.147-0.917,0.208-1.377c0.056-0.424,0.103-0.85,0.148-1.276    c0.027-0.259,0.067-0.517,0.09-0.777c39.335,16.447,92.341,38.606,122.775,51.327c-8.417-2.056-18.473-4.513-29.479-7.201    l-99.793-24.382C285.879,310.092,285.922,310.007,285.972,309.925z"/>
		<path d="M449.347,442.417l-83.356-35.346c-3.588-1.519-7.747-0.039-9.563,3.41c-13.185,25.031-30.527,47.352-51.545,66.34    c-2.302,2.08-3.086,5.363-1.972,8.259c1.114,2.896,3.896,4.807,7,4.807h104.098c1.784,0,3.51-0.636,4.867-1.794    c12.145-10.358,23.366-21.807,33.351-34.024c1.494-1.828,2.04-4.254,1.473-6.546C453.133,445.231,451.521,443.339,449.347,442.417    z M411.221,474.887h-82.839c14.785-15.457,27.52-32.653,38.017-51.349l67.685,28.7    C426.991,460.228,419.334,467.814,411.221,474.887z"/>
		<path d="M255.967,87.473c25.397,13.376,47.983,31.008,67.13,52.405c1.475,1.648,3.525,2.499,5.593,2.499    c1.578,0,3.165-0.496,4.513-1.512L405.49,86.35c1.885-1.422,2.991-3.648,2.984-6.009c-0.007-2.361-1.125-4.582-3.018-5.993    C369.05,47.21,326.134,29.815,281.35,24.04c-3.334-0.433-6.551,1.414-7.864,4.511L252.557,77.91    C251.035,81.499,252.517,85.657,255.967,87.473z M285.048,39.707c36.904,5.629,72.307,19.632,103.255,40.816l-58.7,44.269    c-17.732-18.781-38.062-34.651-60.58-47.292L285.048,39.707z"/>
		<path d="M346.968,171.46c15.313,24.206,26.037,50.77,31.876,78.953c0.729,3.518,3.828,5.979,7.337,5.979    c0.305,0,0.614-0.019,0.924-0.058l113.067-13.927c2.075-0.255,3.95-1.366,5.171-3.063c1.222-1.697,1.679-3.828,1.261-5.877    c-10.049-49.335-33.886-94.562-68.936-130.79c-2.632-2.722-6.882-3.055-9.906-0.773l-78.973,59.558    C345.674,163.813,344.881,168.162,346.968,171.46z M431.431,117.927c28.745,31.327,48.906,69.306,58.726,110.603l-98.118,12.085    c-5.932-25.199-15.589-49.119-28.776-71.278L431.431,117.927z"/>
	</g>
</g>















</svg>
