<?xml version="1.0" encoding="iso-8859-1"?>
<!-- Generator: Adobe Illustrator 19.0.0, SVG Export Plug-In . SVG Version: 6.00 Build 0)  -->
<svg version="1.1" id="Capa_1" xmlns="http://www.w3.org/2000/svg" xmlns:xlink="http://www.w3.org/1999/xlink" x="0px" y="0px"
	 viewBox="0 0 512 512" style="enable-background:new 0 0 512 512;" xml:space="preserve">
<path style="fill:#FD3C65;" d="M391,26.1V135l-30,15H30L0,120V45C0,20.099,20.099,0,45,0h316L391,26.1z"/>
<polygon style="fill:#FD003A;" points="391,26.1 391,135 361,150 256,150 256,0 361,0 "/>
<path style="fill:#004A7B;" d="M467,0H361v150h121l30-30V45C512,20.186,491.814,0,467,0z"/>
<path style="fill:#E1E4FB;" d="M512,120v347c0,24.901-20.099,45-45,45H45c-24.901,0-45-20.099-45-45V120H512z"/>
<path style="fill:#C5C9F7;" d="M512,120v347c0,24.901-20.099,45-45,45H256V120H512z"/>
<g>
	<path style="fill:#004A7B;" d="M105,90H75c-8.291,0-15-6.709-15-15s6.709-15,15-15h30c8.291,0,15,6.709,15,15S113.291,90,105,90z"
		/>
	<path style="fill:#004A7B;" d="M196,90h-31c-8.291,0-15-6.709-15-15s6.709-15,15-15h31c8.291,0,15,6.709,15,15S204.291,90,196,90z"
		/>
	<path style="fill:#004A7B;" d="M301,75c0,8.401-6.599,15-15,15h-30c-8.401,0-15-6.599-15-15s6.599-15,15-15h30
		C294.401,60,301,66.599,301,75z"/>
</g>
<path style="fill:#00345B;" d="M301,75c0,8.401-6.599,15-15,15h-30V60h30C294.401,60,301,66.599,301,75z"/>
<path style="fill:#6F77E6;" d="M180,348c0-8.291-6.709-15-15-15h-60c-8.291,0-15,6.709-15,15v89h90V348z"/>
<path style="fill:#6ECD24;" d="M301,288v149h-90V288c0-8.401,6.599-15,15-15h60C294.401,273,301,279.599,301,288z"/>
<path style="fill:#FE9923;" d="M421,228c0-8.291-6.709-15-15-15h-60c-8.291,0-15,6.709-15,15v209h90V228z"/>
<path style="fill:#66BD21;" d="M301,288v149h-45V273h30C294.401,273,301,279.599,301,288z"/>
<path style="fill:#004A7B;" d="M451,437c0,8.399-6.599,15-15,15H75c-8.401,0-15-6.601-15-15c0-8.401,6.599-15,15-15h361
	C444.401,422,451,428.599,451,437z"/>
<path style="fill:#00345B;" d="M451,437c0,8.399-6.599,15-15,15H256v-30h180C444.401,422,451,428.599,451,437z"/>
<g>
</g>
<g>
</g>
<g>
</g>
<g>
</g>
<g>
</g>
<g>
</g>
<g>
</g>
<g>
</g>
<g>
</g>
<g>
</g>
<g>
</g>
<g>
</g>
<g>
</g>
<g>
</g>
<g>
</g>
</svg>
