<svg height="464pt" viewBox="0 0 464 464" width="464pt" xmlns="http://www.w3.org/2000/svg"><path d="m440 152v288h-416v-288c0-22.089844 17.910156-40 40-40h336c22.089844 0 40 17.910156 40 40zm0 0" fill="#ccdce5"/><path d="m344 464h-320c-13.253906 0-24-10.746094-24-24v-24h160l16 16h112l16-16h160v24c0 13.253906-10.746094 24-24 24zm0 0" fill="#abbac2"/><path d="m56 144h352v240h-352zm0 0" fill="#0093ba"/><path d="m408 144h-64l-240 240h304zm0 0" fill="#047fa7"/><path d="m144 280h176c17.671875 0 32 14.328125 32 32s-14.328125 32-32 32h-176c-17.671875 0-32-14.328125-32-32s14.328125-32 32-32zm0 0" fill="#ffc119"/><path d="m320 280h-112l-64 64h176c17.671875 0 32-14.328125 32-32s-14.328125-32-32-32zm0 0" fill="#faac2b"/><path d="m200 112v-48c0-17.671875 14.328125-32 32-32s32 14.328125 32 32h32c0-35.347656-28.652344-64-64-64s-64 28.652344-64 64v48zm0 0" fill="#ccdce5"/><path d="m328 112c0-8.835938-7.164062-16-16-16h-160c-8.835938 0-16 7.164062-16 16v112c0 8.835938 7.164062 16 16 16h96l80-80zm0 0" fill="#ffc119"/><path d="m248 240h64c8.835938 0 16-7.164062 16-16v-64zm0 0" fill="#faac2b"/><g fill="#ea732d"><path d="m256 160c0 13.253906-10.746094 24-24 24s-24-10.746094-24-24 10.746094-24 24-24 24 10.746094 24 24zm0 0"/><path d="m224 176h16v32h-16zm0 0"/><path d="m144 304h16v16h-16zm0 0"/><path d="m176 304h16v16h-16zm0 0"/><path d="m208 304h16v16h-16zm0 0"/><path d="m240 304h16v16h-16zm0 0"/></g><path d="m368 248c0 30.929688-25.070312 56-56 56s-56-25.070312-56-56 25.070312-56 56-56 56 25.070312 56 56zm0 0" fill="#eb4042"/><path d="m312 272c-2.121094 0-4.15625-.84375-5.65625-2.34375l-24-24 11.3125-11.3125 18.34375 18.34375 50.34375-50.34375 11.3125 11.3125-56 56c-1.5 1.5-3.535156 2.34375-5.65625 2.34375zm0 0" fill="#e9f0f1"/></svg>