<?xml version="1.0" encoding="iso-8859-1"?>
<!-- Generator: Adobe Illustrator 19.0.0, SVG Export Plug-In . SVG Version: 6.00 Build 0)  -->
<svg version="1.1" id="Capa_1" xmlns="http://www.w3.org/2000/svg" xmlns:xlink="http://www.w3.org/1999/xlink" x="0px" y="0px"
	 viewBox="0 0 512 512" style="enable-background:new 0 0 512 512;" xml:space="preserve">
<circle style="fill:#7EC359;" cx="256" cy="256" r="256"/>
<rect x="211.676" y="321.92" style="fill:#4D535F;" width="88.64" height="120.44"/>
<rect x="37.392" y="59.444" style="fill:#656D7A;" width="437.2" height="320"/>
<rect x="58.852" y="80.904" style="fill:#FDFEFF;" width="394.28" height="241"/>
<g>
	<rect x="170.232" y="425.72" style="fill:#656D7A;" width="171.536" height="33.952"/>
	<polygon style="fill:#656D7A;" points="400.932,121.196 307.8,214.324 262.388,168.912 215.624,215.676 171.484,171.456 
		93.148,249.876 85.752,242.476 171.484,156.824 215.624,200.964 262.388,154.2 307.8,199.612 393.536,113.876 	"/>
</g>
<circle style="fill:#70B1E1;" cx="308.48" cy="205.72" r="14.272"/>
<circle style="fill:#7EC359;" cx="262.6" cy="163.772" r="14.272"/>
<circle style="fill:#F5EA07;" cx="171.368" cy="166.884" r="14.272"/>
<g>
	<circle style="fill:#F1592F;" cx="215.908" cy="207.452" r="14.272"/>
	<circle style="fill:#F1592F;" cx="92.16" cy="242.24" r="14.272"/>
</g>
<polygon style="fill:#656D7A;" points="411.924,104.348 361.332,113.26 403.012,154.94 "/>
<path style="fill:#70B1E1;" d="M148.48,298.472v-75.708c-9.8,9.8-20.84,20.88-30.48,30.52v45.184h30.48V298.472z"/>
<path style="fill:#7EC359;" d="M195.32,298.472v-74.868c-8.72-8.68-18.16-18.12-23.84-23.84c-1.68,1.68-3.96,3.96-6.64,6.6v92.104
	h30.48V298.472z"/>
<path style="fill:#70B1E1;" d="M242.16,298.472v-81.028l-26.52,26.52c0,0-1.52-1.52-3.96-4v58.504h30.48V298.472z"/>
<polygon style="fill:#F5EA07;" points="289,298.472 289,223.804 262.4,197.204 258.52,201.084 258.52,298.472 "/>
<polygon style="fill:#7EC359;" points="335.84,298.472 335.84,214.564 307.8,242.604 305.36,240.164 305.36,298.472 "/>
<polygon style="fill:#F1592F;" points="382.68,298.472 382.68,167.724 352.2,198.204 352.2,298.472 "/>
<circle style="fill:#4D535F;" cx="256" cy="350.04" r="15.728"/>
<g>
</g>
<g>
</g>
<g>
</g>
<g>
</g>
<g>
</g>
<g>
</g>
<g>
</g>
<g>
</g>
<g>
</g>
<g>
</g>
<g>
</g>
<g>
</g>
<g>
</g>
<g>
</g>
<g>
</g>
</svg>
