<svg class="_2YAsIJAi _3RUKX4ND" tabindex="" xmlns="http://www.w3.org/2000/svg" viewBox="0 0 16.5 23" role="img" aria-label="Add"><path d="M15.9 0H.6C.3 0 0 .3 0 .6v21.8c0 .2.1.4.3.5.2.1.4.1.6 0l7.3-4.5 7.3 4.5c.1.1.2.1.3.1.1 0 .2 0 .3-.1.2-.1.3-.3.3-.5V.6c.1-.3-.2-.6-.5-.6zm-.7 21.3l-6.7-4.1c-.2-.1-.4-.1-.6 0l-6.7 4.1V1.2h14v20.1zm-6.3-8.4c0 .3-.3.6-.6.6-.2 0-.3-.1-.4-.2s-.2-.3-.2-.4v-3h-3c-.5 0-.7-.3-.7-.7 0-.3.3-.6.6-.6h3v-3c0-.4.3-.6.6-.6s.6.3.6.6v3h3c.3 0 .6.3.6.6s-.3.6-.6.6h-3l.1 3.1z"></path></svg>