<?xml version="1.0" standalone="no"?>
<!DOCTYPE svg PUBLIC "-//W3C//DTD SVG 20010904//EN"
 "http://www.w3.org/TR/2001/REC-SVG-20010904/DTD/svg10.dtd">
<svg version="1.0" xmlns="http://www.w3.org/2000/svg"
 width="1861.000000pt" height="850.000000pt" viewBox="0 0 1861.000000 850.000000"
 preserveAspectRatio="xMidYMid meet">
<metadata>
Created by potrace 1.15, written by Peter Selinger 2001-2017
</metadata>
<g transform="translate(0.000000,850.000000) scale(0.100000,-0.100000)"
fill="#000000" stroke="none">
<path d="M1362 8250 c-294 -41 -515 -264 -551 -556 -24 -197 34 -418 161 -611
l63 -95 3 275 2 274 223 5 c206 5 227 7 295 30 94 34 159 76 226 149 30 32 57
59 59 59 3 0 24 -29 47 -65 67 -103 132 -151 219 -164 l46 -6 5 -278 5 -279
62 94 c98 150 147 283 162 448 20 224 -35 385 -184 536 -86 88 -173 138 -290
170 -70 19 -449 28 -553 14z"/>
<path d="M1309 7271 c-35 -36 -37 -61 -6 -97 46 -54 130 -23 130 47 0 23 -8
39 -27 56 -36 31 -61 29 -97 -6z"/>
<path d="M1789 7271 c-35 -36 -37 -61 -6 -97 46 -54 130 -23 130 47 0 23 -8
39 -27 56 -36 31 -61 29 -97 -6z"/>
<path d="M2511 6394 c-24 -30 -26 -46 -10 -77 16 -30 28 -37 66 -37 34 0 73
37 73 70 0 34 -39 70 -75 70 -24 0 -39 -7 -54 -26z"/>
<path d="M920 6155 c-374 -188 -407 -210 -443 -307 -15 -40 -227 -1211 -227
-1256 0 -11 53 -109 117 -216 l118 -196 197 0 198 0 0 -280 0 -280 360 0 360
0 0 280 0 280 -320 0 c-176 0 -320 3 -320 8 -1 21 155 465 165 468 6 3 116
-31 244 -74 l234 -79 198 81 198 80 122 -39 c116 -38 122 -41 156 -87 19 -27
37 -48 39 -48 2 0 4 370 4 823 l0 822 -200 100 c-109 54 -201 97 -203 95 -2
-3 -22 -33 -45 -66 -77 -115 -159 -164 -272 -164 -114 0 -201 53 -276 170 -22
33 -43 60 -49 59 -5 0 -165 -78 -355 -174z"/>
<path d="M4160 5451 l-465 -6 -3 -114 c-1 -63 1 -118 5 -122 4 -4 235 -9 511
-10 423 -2 505 0 513 12 11 18 11 210 0 228 -11 18 -26 18 -561 12z m-143 -87
c25 -7 36 -29 28 -55 -6 -17 -18 -19 -125 -19 -109 0 -120 2 -130 20 -8 15 -6
24 10 40 17 17 33 20 108 20 48 0 97 -3 109 -6z m580 0 c25 -7 36 -29 27 -56
-5 -17 -16 -18 -167 -16 l-162 3 -3 28 c-3 21 2 29 20 36 25 11 250 14 285 5z"/>
<path d="M4155 5031 l-460 -6 -3 -114 c-1 -63 1 -118 5 -122 4 -4 235 -9 511
-10 426 -2 505 0 513 12 11 18 11 210 0 228 -12 18 -24 18 -566 12z m-111
-107 c10 -26 -2 -51 -27 -58 -12 -3 -61 -6 -109 -6 -75 0 -91 3 -108 20 -16
16 -18 25 -10 40 10 18 21 20 129 20 101 0 120 -2 125 -16z m576 1 c16 -19 4
-52 -23 -59 -38 -10 -267 -7 -288 4 -18 10 -26 50 -12 63 3 4 75 7 158 7 121
0 155 -3 165 -15z"/>
<path d="M4700 4690 c0 -38 -1 -71 -2 -72 -2 -1 -228 -4 -503 -7 l-500 -6 -3
-82 -3 -83 -230 0 -230 0 3 -107 3 -108 353 -3 352 -2 0 71 0 71 386 -3 c418
-3 404 -5 404 51 0 20 9 30 43 45 23 11 52 35 65 54 19 30 22 47 22 142 l0
109 -80 0 -80 0 0 -70z m-662 -182 c16 -16 15 -33 -4 -52 -12 -12 -38 -16
-115 -16 -86 0 -102 3 -119 20 -16 16 -18 25 -10 40 10 18 21 20 123 20 75 0
117 -4 125 -12z m582 -3 c16 -19 4 -52 -23 -59 -38 -10 -267 -7 -288 4 -18 10
-26 50 -12 63 3 4 75 7 158 7 121 0 155 -3 165 -15z"/>
<path d="M4026 4211 c44 -27 48 -36 54 -121 l5 -75 43 -3 c61 -4 72 8 72 82 0
97 -43 136 -152 136 l-53 0 31 -19z"/>
</g>
</svg>
