<svg class="_2YAsIJAi _2TqDbteG" tabindex="" xmlns="http://www.w3.org/2000/svg" viewBox="0 0 32 36" role="img" aria-label="Download"><path d="M29.5 30.43h-27a2.5 2.5 0 0 0 0 5h27a2.5 2.5 0 0 0 0-5zM5.24 13.6a2 2 0 0 0-.08.26v.12a2 2 0 0 0 0 .39v.09a2 2 0 0 0 0 .29v.16a2 2 0 0 0 .07.21c0 .06.06.11.09.17a1.93 1.93 0 0 0 .09.17 2 2 0 0 0 .16.2l.08.1 9.42 9.56.17.14.13.1.22.12.12.06.27.08h.11a2 2 0 0 0 .76 0h.1l.27-.08.12-.06.22-.12.13-.1.18-.14 9.42-9.56.08-.1a2 2 0 0 0 .16-.2 1.93 1.93 0 0 0 .09-.17c0-.06.06-.11.09-.17a2 2 0 0 0 .07-.21v-.16a2 2 0 0 0 0-.29v-.09a2 2 0 0 0 0-.39v-.12a2 2 0 0 0-.08-.26c0-.06-.06-.12-.09-.17s-.06-.12-.09-.17a2 2 0 0 0-.25-.3l-.1-.08a2 2 0 0 0-.2-.16l-.17-.09-.17-.09-.21-.06H20V3.5a3.5 3.5 0 0 0-7 0v8.87H6.55l-.21.06-.17.09-.17.19a2 2 0 0 0-.2.16l-.1.08a2 2 0 0 0-.25.3c0 .05-.06.11-.09.17s-.1.12-.12.18z"></path></svg>